<svg width="174" height="459" viewBox="0 0 174 459" fill="none" xmlns="http://www.w3.org/2000/svg">
<path d="M126.5 406C126.5 405.2 128.5 405.667 129.5 406C129.5 406 134.5 419 135 420.5C134.6 423.3 131.833 422.667 130.5 422C127.5 425.5 128 420.5 126 422C124.4 423.2 122.667 421.5 122 420.5C123.5 416 126.5 406.8 126.5 406Z" fill="#9C7842"/>
<ellipse cx="40" cy="73" rx="40" ry="73" transform="matrix(-1 0 0 1 168 260)" fill="url(#paint0_radial_23350_207923)"/>
<path d="M130 406.344C119.961 404.404 97.9302 403.086 90.1163 413.326C80.3488 426.127 70.2791 446.836 54 448" stroke="#9C7842"/>
<path d="M38.5 263C38.5 262.2 40.5 262.667 41.5 263C41.5 263 46.5 276 47 277.5C46.6 280.3 43.8333 279.667 42.5 279C39.5 282.5 40 277.5 38 279C36.4 280.2 34.6667 278.5 34 277.5C35.5 273 38.5 263.8 38.5 263Z" fill="#9C7842"/>
<ellipse cx="40" cy="73" rx="40" ry="73" transform="matrix(-1 0 0 1 80 117)" fill="url(#paint1_radial_23350_207923)"/>
<path d="M133.018 134.375C133.018 133.639 134.993 134.069 135.981 134.375C135.981 134.375 140.918 146.34 141.412 147.721C141.017 150.298 138.285 149.715 136.968 149.101C134.006 152.323 134.5 147.721 132.525 149.101C130.945 150.206 129.233 148.641 128.575 147.721C130.056 143.579 133.018 135.112 133.018 134.375Z" fill="#9C7842"/>
<ellipse cx="39.5" cy="67.1876" rx="39.5" ry="67.1876" transform="matrix(-1 0 0 1 174 0)" fill="url(#paint2_radial_23350_207923)"/>
<path d="M132.5 135C129.5 136.5 89 181.5 85.5 266.5C82 351.5 63 398 53.5 405" stroke="#9C7842"/>
<path d="M137.056 133.855C146.24 134.21 165.837 152.858 145.122 158.214C119.229 164.91 154.633 166.614 156.385 170.297C157.858 173.394 154.86 173.521 150.794 175.55C146.727 177.579 137.693 178.931 148.953 183.479C160.212 188.028 157.66 192.631 156.597 195.177C155.534 197.722 140.071 205.086 150.883 212.049" stroke="#9C7842"/>
<path d="M124.982 406.855C134.166 407.21 153.762 425.858 133.048 431.214C107.155 437.91 142.559 439.614 144.311 443.297C145.784 446.394 142.786 446.521 138.719 448.55C134.653 450.579 125.619 451.931 136.879 456.479" stroke="#9C7842"/>
<path d="M36.7046 263.598C44.78 261.958 67.1237 275.517 50.6696 285.088C30.102 297.051 61.3284 291.048 63.902 294.182C66.0658 296.818 63.4994 297.585 60.5484 300.396C57.5973 303.207 50.1405 306.442 61.2163 308.353" stroke="#9C7842"/>
<defs>
<radialGradient id="paint0_radial_23350_207923" cx="0" cy="0" r="1" gradientUnits="userSpaceOnUse" gradientTransform="translate(50.5 87.5) rotate(92.447) scale(58.5534 32.084)">
<stop stop-color="white"/>
<stop offset="0.714583" stop-color="#DCAE79"/>
<stop offset="1" stop-color="#D48931"/>
</radialGradient>
<radialGradient id="paint1_radial_23350_207923" cx="0" cy="0" r="1" gradientUnits="userSpaceOnUse" gradientTransform="translate(50.5 87.5) rotate(92.447) scale(58.5534 32.084)">
<stop stop-color="white"/>
<stop offset="0.714583" stop-color="#DCAE79"/>
<stop offset="1" stop-color="#D48931"/>
</radialGradient>
<radialGradient id="paint2_radial_23350_207923" cx="0" cy="0" r="1" gradientUnits="userSpaceOnUse" gradientTransform="translate(49.8688 80.5331) rotate(92.6253) scale(53.8987 31.6786)">
<stop stop-color="white"/>
<stop offset="0.714583" stop-color="#DCAE79"/>
<stop offset="1" stop-color="#D48931"/>
</radialGradient>
</defs>
</svg>
