<svg width="300" height="168" viewBox="0 0 300 168" fill="none" xmlns="http://www.w3.org/2000/svg">
<path d="M271.017 91.1556C285.006 89.7055 293.418 84.2643 295.876 81.7249L298.772 76.3541C286.962 85.0672 275.713 87.4926 271.564 87.6162C248.57 79.6577 236.147 82.2512 236.121 85.3836L237.358 86.2863C235.454 80.8001 261.921 87.6686 271.017 91.1556Z" fill="#97A4A1" stroke="#97A4A1"/>
<path d="M36.8374 13.9773C42.1589 24.251 48.9207 22.0123 52.0487 21.6221C47.4732 8.39762 41.3562 8.68834 41.4377 9.78755C41.5029 10.6669 42.3199 12.225 42.2368 12.2867L39.3869 11.6973C39.3853 12.8582 41.2323 14.1152 40.8781 14.069L36.8374 13.9773Z" fill="url(#paint0_linear_23349_188612)"/>
<path d="M36.8374 13.9773C42.1589 24.251 48.9207 22.0123 52.0487 21.6221C47.4732 8.39762 41.3562 8.68834 41.4377 9.78755C41.5029 10.6669 42.3199 12.225 42.2368 12.2867L39.3869 11.6973C39.3853 12.8582 41.2323 14.1152 40.8781 14.069L36.8374 13.9773Z" stroke="#F1D2D2" stroke-width="0.632157"/>
<path d="M36.8374 13.9773C42.1589 24.251 48.9207 22.0123 52.0487 21.6221C47.4732 8.39762 41.3562 8.68834 41.4377 9.78755C41.5029 10.6669 42.3199 12.225 42.2368 12.2867L39.3869 11.6973C39.3853 12.8582 41.2323 14.1152 40.8781 14.069L36.8374 13.9773Z" stroke="#9D4646" stroke-opacity="0.2" stroke-width="0.632157"/>
<path d="M73.5642 45.5187C47.9603 23.2977 53.0002 20.3055 51.5002 14.9874C48.5002 15.4708 49.4124 19.2987 48.0002 20.3055C45.735 18.7237 42.7825 16.4197 41.8398 16.3746C44.8972 18.1785 48.9023 22.5013 46.5002 21.7559C39.4828 19.5783 41.8398 24.1732 41.8398 24.1732C49.0002 21.7559 61.7625 34.9779 72.1509 45.9114L73.5642 45.5187Z" fill="#97A4A1" stroke="#97A4A1" stroke-width="0.629083"/>
<path d="M106.737 137.581C109.982 139.311 115.738 144.7 112.807 152.415L108.388 152.585L107.57 155.838C104.32 156.527 97.4777 155.23 96.1028 144.531C95.2639 148.1 91.4412 155.144 82.8618 154.771C82.6789 153.682 82.2204 151.294 81.8494 150.449C81.3858 149.393 78.3639 152.048 78.6938 150.473C79.0237 148.898 74.3308 144.491 84.6049 136.643C80.8227 136.17 72.9169 133.455 71.551 126.374L76.8249 124.739L75.7576 120.68C79.4371 120.049 86.8258 119.889 89.6123 123.629C88.3238 120.502 88.1774 114.577 94.9624 108.129C95.8168 108.627 97.6709 109.847 98.2518 110.735C98.9779 111.846 98.8991 108.953 101.744 108.453C103.855 111.453 107.16 118.821 103.492 124.299C106.282 122.098 113.354 118.941 119.325 123.918C119.333 124.969 119.168 127.282 118.446 128.117C117.542 129.16 121.388 128.459 122.211 130.412C120.202 133.462 114.295 139.165 106.737 137.581Z" fill="url(#paint1_linear_23349_188612)"/>
<path d="M106.737 137.581C109.982 139.311 115.738 144.7 112.807 152.415L108.388 152.585L107.57 155.838C104.32 156.527 97.4777 155.23 96.1028 144.531C95.2639 148.1 91.4412 155.144 82.8618 154.771C82.6789 153.682 82.2204 151.294 81.8494 150.449C81.3858 149.393 78.3639 152.048 78.6938 150.473C79.0237 148.898 74.3308 144.491 84.6049 136.643C80.8227 136.17 72.9169 133.455 71.551 126.374L76.8249 124.739L75.7576 120.68C79.4371 120.049 86.8258 119.889 89.6123 123.629C88.3238 120.502 88.1774 114.577 94.9624 108.129C95.8168 108.627 97.6709 109.847 98.2518 110.735C98.9779 111.846 98.8991 108.953 101.744 108.453C103.855 111.453 107.16 118.821 103.492 124.299C106.282 122.098 113.354 118.941 119.325 123.918C119.333 124.969 119.168 127.282 118.446 128.117C117.542 129.16 121.388 128.459 122.211 130.412C120.202 133.462 114.295 139.165 106.737 137.581Z" fill="#FCE8E8"/>
<path d="M106.737 137.581C109.982 139.311 115.738 144.7 112.807 152.415L108.388 152.585L107.57 155.838C104.32 156.527 97.4777 155.23 96.1028 144.531M106.737 137.581C114.295 139.165 120.202 133.462 122.211 130.412C121.388 128.459 117.542 129.16 118.446 128.117C119.168 127.282 119.333 124.969 119.325 123.918C113.354 118.941 106.282 122.098 103.492 124.299M106.737 137.581L96.0439 133.697M96.1028 144.531C95.2639 148.1 91.4412 155.144 82.8618 154.771C82.6789 153.682 82.2204 151.294 81.8494 150.449C81.3858 149.393 78.3639 152.048 78.6938 150.473C79.0237 148.898 74.3308 144.491 84.6049 136.643M96.1028 144.531L96.0439 133.697M84.6049 136.643C80.8227 136.17 72.9169 133.455 71.551 126.374L76.825 124.739L75.7576 120.68C79.8309 119.981 88.4499 119.86 90.3386 124.968M84.6049 136.643L96.0439 133.697M90.3386 124.968C88.573 122.498 87.026 115.671 94.9624 108.129C95.8168 108.627 97.6709 109.847 98.2518 110.735C98.9779 111.846 98.8991 108.953 101.744 108.453C103.855 111.453 107.16 118.821 103.492 124.299M90.3386 124.968L96.0439 133.697M103.492 124.299L96.0439 133.697" stroke="white" stroke-width="0.379218"/>
<path d="M59.8185 114.556C62.3102 115.884 66.731 120.023 64.48 125.947L61.0865 126.077L60.4579 128.575C57.9627 129.104 52.7083 128.109 51.6525 119.893C51.0082 122.633 48.0727 128.042 41.4845 127.756C41.3441 126.92 40.9919 125.086 40.7071 124.437C40.351 123.626 38.0305 125.665 38.2838 124.456C38.5372 123.246 34.9334 119.862 42.8231 113.836C39.9187 113.473 33.8476 111.387 32.7988 105.95L36.8487 104.694L36.0291 101.577C38.8547 101.092 44.5285 100.97 46.6683 103.842C45.6788 101.44 45.5664 96.8906 50.7767 91.9388C51.4328 92.3217 52.8566 93.2581 53.3027 93.9406C53.8603 94.7938 53.7998 92.5721 55.9841 92.1882C57.6054 94.4914 60.1438 100.15 57.3269 104.356C59.4693 102.666 64.9002 100.241 69.4854 104.063C69.4915 104.871 69.3649 106.647 68.8098 107.288C68.116 108.089 71.069 107.551 71.7015 109.051C70.1589 111.393 65.6228 115.772 59.8185 114.556Z" fill="url(#paint2_linear_23349_188612)"/>
<path d="M59.8185 114.556C62.3102 115.884 66.731 120.023 64.48 125.947L61.0865 126.077L60.4579 128.575C57.9627 129.104 52.7083 128.109 51.6525 119.893C51.0082 122.633 48.0727 128.042 41.4845 127.756C41.3441 126.92 40.9919 125.086 40.7071 124.437C40.351 123.626 38.0305 125.665 38.2838 124.456C38.5372 123.246 34.9334 119.862 42.8231 113.836C39.9187 113.473 33.8476 111.387 32.7988 105.95L36.8487 104.694L36.0291 101.577C38.8547 101.092 44.5285 100.97 46.6683 103.842C45.6788 101.44 45.5664 96.8906 50.7767 91.9388C51.4328 92.3217 52.8566 93.2581 53.3027 93.9406C53.8603 94.7938 53.7998 92.5721 55.9841 92.1882C57.6054 94.4914 60.1438 100.15 57.3269 104.356C59.4693 102.666 64.9002 100.241 69.4854 104.063C69.4915 104.871 69.3649 106.647 68.8098 107.288C68.116 108.089 71.069 107.551 71.7015 109.051C70.1589 111.393 65.6228 115.772 59.8185 114.556Z" fill="#FCE8E8"/>
<path d="M59.8185 114.556C62.3102 115.884 66.731 120.023 64.48 125.947L61.0865 126.077L60.4579 128.575C57.9627 129.104 52.7083 128.109 51.6525 119.893M59.8185 114.556C65.6228 115.772 70.1589 111.393 71.7015 109.051C71.069 107.551 68.116 108.089 68.8098 107.288C69.3649 106.647 69.4915 104.871 69.4854 104.063C64.9002 100.241 59.4693 102.666 57.3269 104.356M59.8185 114.556L51.6072 111.573M51.6525 119.893C51.0082 122.633 48.0727 128.042 41.4845 127.756C41.3441 126.92 40.9919 125.086 40.7071 124.437C40.351 123.626 38.0305 125.665 38.2838 124.456C38.5372 123.246 34.9334 119.862 42.8231 113.836M51.6525 119.893L51.6072 111.573M42.8231 113.836C39.9187 113.473 33.8476 111.387 32.7988 105.95L36.8487 104.694L36.0291 101.577C39.1571 101.04 45.7756 100.947 47.226 104.87M42.8231 113.836L51.6072 111.573M47.226 104.87C45.8702 102.973 44.6823 97.7309 50.7767 91.9388C51.4328 92.3217 52.8566 93.2581 53.3027 93.9407C53.8603 94.7938 53.7998 92.5721 55.9841 92.1882C57.6054 94.4914 60.1438 100.15 57.3269 104.356M47.226 104.87L51.6072 111.573M57.3269 104.356L51.6072 111.573" stroke="white" stroke-width="0.291207"/>
<path d="M80.0819 105.962C93.1057 107.359 95.2964 91.6408 94.7638 83.6073C68.8558 87.4385 74.333 101.631 75.3494 101.722C76.1625 101.795 77.9915 101.631 78.8043 101.54L80.0819 105.962Z" fill="url(#paint3_linear_23349_188612)" stroke="#E8A6A6" stroke-width="0.430791"/>
<path fill-rule="evenodd" clip-rule="evenodd" d="M85.9059 92.8053C85.6766 92.7602 85.3933 92.8237 85.1151 93.0055C84.5766 93.3574 84.2608 94.0191 84.4097 94.4835C84.5585 94.9479 85.1158 95.0391 85.6542 94.6872C86.1668 94.3523 86.4776 93.7367 86.378 93.2777L94.4791 84.5944L93.985 84.1458L85.9059 92.8053Z" fill="#FFF2F2"/>
<path fill-rule="evenodd" clip-rule="evenodd" d="M84.38 89.5671C84.2318 89.4071 83.9958 89.3384 83.7111 89.4001C83.1617 89.5191 82.6393 90.0787 82.5442 90.6499C82.4492 91.221 82.8174 91.5875 83.3668 91.4685C83.9162 91.3494 84.4386 90.7898 84.5336 90.2187C84.5347 90.2126 84.5356 90.2065 84.5365 90.2004L94.2677 84.7944L94.1212 84.1554L84.38 89.5671Z" fill="#FFF2F2"/>
<path fill-rule="evenodd" clip-rule="evenodd" d="M89.1126 95.123C88.8454 95.2108 88.5726 95.4036 88.362 95.6773C87.9555 96.2057 87.9351 96.8355 88.3164 97.0839C88.6977 97.3323 89.3363 97.1053 89.7428 96.5769C90.1188 96.0882 90.1645 95.5127 89.8675 95.2325L94.3831 84.8847L93.6063 84.8252L89.1126 95.123Z" fill="#FFF2F2"/>
<path d="M112.523 104.241C117.702 92.2339 103.406 85.2616 95.6105 83.2765C91.5927 109.215 106.706 108.389 107.093 107.446C107.403 106.692 107.787 104.894 107.941 104.089L112.523 104.241Z" fill="url(#paint4_linear_23349_188612)" stroke="#E8A6A6" stroke-width="0.430791"/>
<path fill-rule="evenodd" clip-rule="evenodd" d="M101.737 94.5916C101.625 94.7958 101.6 95.0862 101.691 95.4089C101.867 96.0303 102.404 96.5364 102.892 96.5393C103.379 96.5422 103.632 96.0408 103.457 95.4194C103.29 94.8296 102.798 94.3437 102.331 94.2933L96.4693 83.8562L95.8939 84.1872L101.737 94.5916Z" fill="#FFF2F2"/>
<path fill-rule="evenodd" clip-rule="evenodd" d="M98.2076 95.0456C98.0118 95.1376 97.8768 95.3419 97.8513 95.6331C97.8021 96.1951 98.1794 96.868 98.6941 97.136C99.2087 97.4041 99.6659 97.1657 99.7151 96.6037C99.7644 96.0417 99.3871 95.3688 98.8724 95.1008C98.8661 95.0975 98.8599 95.0944 98.8536 95.0913L96.5915 84.1187L95.9428 84.0605L98.2076 95.0456Z" fill="#FFF2F2"/>
<path fill-rule="evenodd" clip-rule="evenodd" d="M104.891 92.2524C104.895 92.5351 104.997 92.8559 105.195 93.1419C105.576 93.6937 106.168 93.9074 106.517 93.6192C106.866 93.3309 106.84 92.6499 106.458 92.098C106.106 91.5883 105.574 91.367 105.22 91.5634L96.715 84.0353L96.4276 84.7615L104.891 92.2524Z" fill="#FFF2F2"/>
<path d="M69.1524 75.5102C71.9315 88.3511 87.5416 85.7177 94.9993 82.796C83.196 59.2381 71.4507 68.7262 71.6846 69.7229C71.8717 70.5203 72.6042 72.2153 72.947 72.9631L69.1524 75.5102Z" fill="url(#paint5_linear_23349_188612)" stroke="#E8A6A6" stroke-width="0.430791"/>
<path fill-rule="evenodd" clip-rule="evenodd" d="M83.4779 77.1126C83.4501 76.8799 83.3012 76.6284 83.0404 76.4175C82.5375 76.0111 81.8093 75.9101 81.4137 76.1919C81.0182 76.4737 81.1052 77.0317 81.608 77.4381C82.0856 77.8241 82.7666 77.9346 83.1726 77.7033L93.9704 82.8214L94.2431 82.2153L83.4779 77.1126Z" fill="#FFF2F2"/>
<path fill-rule="evenodd" clip-rule="evenodd" d="M86.069 74.6832C86.174 74.4938 86.1646 74.2481 86.0163 73.9951C85.73 73.5068 85.0343 73.1765 84.4623 73.2574C83.8904 73.3383 83.6588 73.7998 83.9451 74.2881C84.2314 74.7765 84.9272 75.1067 85.4991 75.0258C85.5059 75.0249 85.5127 75.0239 85.5194 75.0228L93.7174 82.6784L94.2763 82.3476L86.069 74.6832Z" fill="#FFF2F2"/>
<path fill-rule="evenodd" clip-rule="evenodd" d="M82.285 80.865C82.1176 80.6362 81.8487 80.4336 81.5229 80.3149C80.894 80.0858 80.2909 80.256 80.1757 80.6951C80.0606 81.1341 80.477 81.6757 81.1059 81.9047C81.687 82.1164 82.2461 81.9871 82.4186 81.6199L93.6667 82.8176L93.4778 82.0568L82.285 80.865Z" fill="#FFF2F2"/>
<path d="M94.3106 55.5079C83.0129 62.0425 90.4648 76.1223 95.603 82.3454C114.202 63.9674 101.475 55.6452 100.604 56.1698C99.9067 56.5894 98.5314 57.8004 97.9309 58.3534L94.3106 55.5079Z" fill="url(#paint6_linear_23349_188612)" stroke="#E8A6A6" stroke-width="0.430791"/>
<path fill-rule="evenodd" clip-rule="evenodd" d="M97.3382 69.6443C97.5497 69.547 97.7407 69.3288 97.8578 69.0168C98.084 68.4142 97.9492 67.6896 97.5566 67.3984C97.1639 67.1072 96.6623 67.3596 96.4361 67.9622C96.221 68.535 96.3323 69.2181 96.6811 69.5344L95.2535 81.3728L95.9147 81.4486L97.3382 69.6443Z" fill="#FFF2F2"/>
<path fill-rule="evenodd" clip-rule="evenodd" d="M100.464 71.3795C100.677 71.4221 100.907 71.3389 101.1 71.1211C101.472 70.7005 101.565 69.9375 101.307 69.4168C101.048 68.8962 100.537 68.8151 100.165 69.2357C99.7925 69.6563 99.7001 70.4193 99.9583 70.9399C99.9614 70.946 99.9644 70.9521 99.9675 70.958L95.3078 81.0877L95.7994 81.5206L100.464 71.3795Z" fill="#FFF2F2"/>
<path fill-rule="evenodd" clip-rule="evenodd" d="M93.3997 69.6446C93.5634 69.4158 93.6702 69.0983 93.6793 68.7518C93.6969 68.0829 93.344 67.5593 92.8912 67.5822C92.4384 67.6051 92.0571 68.1659 92.0395 68.8348C92.0233 69.4531 92.3235 69.9472 92.7266 70.0004L95.1602 81.0816L95.8214 80.6717L93.3997 69.6446Z" fill="#FFF2F2"/>
<path d="M121.203 73.2997C111.419 64.5113 100.43 75.8752 96.1587 82.6558C119.494 94.8169 123.347 80.1686 122.573 79.4972C121.954 78.9601 120.369 78.0161 119.654 77.6112L121.203 73.2997Z" fill="url(#paint7_linear_23349_188612)" stroke="#E8A6A6" stroke-width="0.430791"/>
<path fill-rule="evenodd" clip-rule="evenodd" d="M108.757 80.4632C108.917 80.6347 109.184 80.7504 109.518 80.7677C110.162 80.8013 110.806 80.4542 110.957 79.9925C111.108 79.5308 110.708 79.1294 110.064 79.0959C109.451 79.064 108.838 79.3767 108.65 79.8049L96.9689 82.028L97.108 82.6802L108.757 80.4632Z" fill="#FFF2F2"/>
<path fill-rule="evenodd" clip-rule="evenodd" d="M108.103 83.9682C108.13 84.1842 108.282 84.3783 108.55 84.4962C109.067 84.7236 109.82 84.5806 110.232 84.1768C110.644 83.7729 110.558 83.2612 110.041 83.0338C109.524 82.8063 108.771 82.9493 108.359 83.3532C108.355 83.3576 108.35 83.3621 108.346 83.3665L97.2582 81.9923L97.0033 82.5925L108.103 83.9682Z" fill="#FFF2F2"/>
<path fill-rule="evenodd" clip-rule="evenodd" d="M107.505 76.7112C107.774 76.7977 108.109 76.8031 108.441 76.7067C109.081 76.5206 109.466 76.0258 109.301 75.6013C109.136 75.1769 108.483 74.9837 107.843 75.1698C107.251 75.3419 106.877 75.7782 106.955 76.1786L97.2178 81.8518L97.8157 82.357L107.505 76.7112Z" fill="#FFF2F2"/>
<path d="M110.876 135.353C126.796 142.738 135.4 123.235 137.713 112.559C103.588 106.465 105.229 127.263 106.478 127.816C107.477 128.259 109.847 128.827 110.906 129.056L110.876 135.353Z" fill="url(#paint8_linear_23349_188612)" stroke="#E8A6A6" stroke-width="0.504213"/>
<path fill-rule="evenodd" clip-rule="evenodd" d="M123.109 120.738C122.833 120.59 122.453 120.556 122.037 120.672C121.217 120.898 120.569 121.616 120.588 122.276C120.607 122.935 121.286 123.286 122.105 123.059C122.924 122.832 123.573 122.114 123.554 121.455C123.554 121.436 123.553 121.417 123.551 121.398L136.938 113.607L136.53 112.927L123.109 120.738Z" fill="#FFF2F2"/>
<path fill-rule="evenodd" clip-rule="evenodd" d="M122.391 115.87C122.264 115.598 121.992 115.407 121.61 115.365C120.873 115.285 120.006 115.791 119.674 116.494C119.341 117.197 119.669 117.832 120.405 117.912C121.142 117.992 122.008 117.487 122.341 116.783C122.363 116.737 122.382 116.691 122.398 116.646L136.65 113.784L136.697 112.998L122.391 115.87Z" fill="#FFF2F2"/>
<path fill-rule="evenodd" clip-rule="evenodd" d="M126.304 125.114C125.936 125.116 125.522 125.252 125.155 125.52C124.443 126.037 124.179 126.85 124.563 127.336C124.948 127.822 125.836 127.796 126.547 127.278C127.258 126.761 127.523 125.947 127.138 125.462C127.138 125.461 127.137 125.46 127.136 125.459L136.624 114.001L135.797 113.648L126.304 125.114Z" fill="#FFF2F2"/>
<path d="M152.462 146.986C163.459 133.585 148.005 118.406 138.904 112.491C124.196 144.505 143.579 149.893 144.417 148.832C145.089 147.984 146.242 145.81 146.735 144.829L152.462 146.986Z" fill="url(#paint9_linear_23349_188612)" stroke="#E8A6A6" stroke-width="0.504213"/>
<path fill-rule="evenodd" clip-rule="evenodd" d="M142.429 129.818C142.203 130.028 142.06 130.394 142.056 130.856C142.05 131.73 142.548 132.616 143.169 132.835C143.791 133.054 144.299 132.523 144.306 131.649C144.312 130.775 143.814 129.889 143.193 129.67C143.187 129.668 143.181 129.666 143.176 129.664L139.667 113.64L138.921 113.796L142.429 129.818Z" fill="#FFF2F2"/>
<path fill-rule="evenodd" clip-rule="evenodd" d="M137.808 128.907C137.528 128.944 137.282 129.153 137.142 129.52C136.871 130.231 137.096 131.268 137.645 131.836C138.194 132.403 138.86 132.287 139.131 131.576C139.402 130.866 139.177 129.829 138.628 129.261C138.586 129.218 138.544 129.179 138.501 129.144L139.718 113.957L139.031 113.653L137.808 128.907Z" fill="#FFF2F2"/>
<path fill-rule="evenodd" clip-rule="evenodd" d="M147.283 128.138C147.18 128.508 147.188 128.97 147.329 129.427C147.602 130.304 148.268 130.828 148.817 130.597C149.366 130.367 149.59 129.469 149.318 128.592C149.048 127.722 148.39 127.199 147.843 127.416L139.938 114.047L139.38 114.771L147.283 128.138Z" fill="#FFF2F2"/>
<path d="M108.394 91.0789C107.131 108.966 127.812 112.216 138.311 111.605C132.165 75.9221 113.815 83.2392 113.74 84.6354C113.68 85.7524 113.975 88.2699 114.129 89.389L108.394 91.0789Z" fill="url(#paint10_linear_23349_188612)" stroke="#E8A6A6" stroke-width="0.504213"/>
<path fill-rule="evenodd" clip-rule="evenodd" d="M125.882 99.2902C125.938 98.9763 125.846 98.5845 125.593 98.198C125.111 97.4594 124.227 97.02 123.618 97.2167C123.009 97.4133 122.907 98.1715 123.389 98.9101C123.871 99.6487 124.756 100.088 125.365 99.8915C125.373 99.8888 125.381 99.886 125.389 99.8831L137.07 111.111L137.571 110.526L125.882 99.2902Z" fill="#FFF2F2"/>
<path fill-rule="evenodd" clip-rule="evenodd" d="M130.052 97.2367C130.255 97.035 130.334 96.7114 130.24 96.319C130.06 95.561 129.305 94.8336 128.554 94.6943C127.802 94.5551 127.339 95.0567 127.519 95.8148C127.7 96.5729 128.455 97.3003 129.206 97.4395C129.261 97.4497 129.314 97.4565 129.366 97.4599L136.846 110.879L137.564 110.713L130.052 97.2367Z" fill="#FFF2F2"/>
<path fill-rule="evenodd" clip-rule="evenodd" d="M122.976 103.656C122.851 103.286 122.587 102.906 122.221 102.612C121.515 102.046 120.693 102.011 120.385 102.536C120.077 103.06 120.4 103.944 121.106 104.51C121.809 105.074 122.626 105.11 122.937 104.595L136.625 110.932L136.664 109.993L122.976 103.656Z" fill="#FFF2F2"/>
<path d="M147.58 75.8232C130.892 79.4908 135.067 100.987 139.241 111.277C169.544 95.3293 156.571 79.0649 155.277 79.3746C154.241 79.6224 152.056 80.6092 151.092 81.0716L147.58 75.8232Z" fill="url(#paint11_linear_23349_188612)" stroke="#E8A6A6" stroke-width="0.504213"/>
<path fill-rule="evenodd" clip-rule="evenodd" d="M146.148 95.5024C146.451 95.4674 146.774 95.2657 147.038 94.9094C147.547 94.2229 147.645 93.2226 147.257 92.6751C146.87 92.1276 146.143 92.2401 145.635 92.9266C145.126 93.613 145.028 94.6133 145.415 95.1608C145.422 95.1705 145.429 95.18 145.436 95.1892L139.263 109.91L139.966 110.244L146.148 95.5024Z" fill="#FFF2F2"/>
<path fill-rule="evenodd" clip-rule="evenodd" d="M149.451 99.0948C149.704 99.2412 150.025 99.2312 150.349 99.0303C150.975 98.6425 151.376 97.6898 151.243 96.9024C151.11 96.115 150.495 95.7911 149.869 96.1789C149.243 96.5668 148.843 97.5195 148.975 98.3069C148.985 98.3629 148.996 98.4166 149.011 98.4679L139.395 109.615L139.795 110.288L149.451 99.0948Z" fill="#FFF2F2"/>
<path fill-rule="evenodd" clip-rule="evenodd" d="M141.178 93.8175C141.471 93.5902 141.724 93.2229 141.864 92.7761C142.135 91.9142 141.884 91.083 141.303 90.9195C140.723 90.756 140.033 91.3221 139.762 92.1839C139.492 93.043 139.741 93.8717 140.317 94.0389L139.277 109.412L140.138 109.194L141.178 93.8175Z" fill="#FFF2F2"/>
<path d="M174.914 110.459C165.829 94.8468 147.737 104.927 139.827 111.919C164.764 137.711 175.069 120.309 174.341 119.105C173.759 118.142 172.109 116.236 171.357 115.404L174.914 110.459Z" fill="url(#paint12_linear_23349_188612)" stroke="#E8A6A6" stroke-width="0.504213"/>
<path fill-rule="evenodd" clip-rule="evenodd" d="M156.547 114.454C156.691 114.742 156.987 115.004 157.399 115.169C158.205 115.493 159.147 115.323 159.503 114.79C159.86 114.258 159.496 113.564 158.69 113.24C157.885 112.917 156.942 113.087 156.586 113.619C156.577 113.633 156.568 113.647 156.559 113.661L141.063 111.568L141.015 112.356L156.547 114.454Z" fill="#FFF2F2"/>
<path fill-rule="evenodd" clip-rule="evenodd" d="M154.414 118.732C154.367 119.025 154.486 119.343 154.78 119.611C155.348 120.127 156.351 120.262 157.022 119.913C157.693 119.563 157.776 118.861 157.209 118.345C156.641 117.829 155.638 117.694 154.967 118.043C154.922 118.066 154.88 118.091 154.84 118.118L141.393 111.608L140.915 112.198L154.414 118.732Z" fill="#FFF2F2"/>
<path fill-rule="evenodd" clip-rule="evenodd" d="M156.352 109.04C156.659 109.266 157.079 109.414 157.534 109.429C158.414 109.46 159.088 108.981 159.04 108.361C158.992 107.741 158.239 107.213 157.359 107.183C156.479 107.153 155.805 107.631 155.853 108.252C155.853 108.252 155.853 108.253 155.853 108.253L141.538 111.449L142.028 112.239L156.352 109.04Z" fill="#FFF2F2"/>
<path d="M166.844 128.26C186.742 137.491 197.497 113.113 200.387 99.7703C157.734 92.1522 159.785 118.149 161.346 118.84C162.595 119.393 165.557 120.104 166.882 120.39L166.844 128.26Z" fill="url(#paint13_linear_23349_188612)" stroke="#E8A6A6" stroke-width="0.630217"/>
<path fill-rule="evenodd" clip-rule="evenodd" d="M182.133 109.993C181.789 109.808 181.314 109.766 180.794 109.91C179.77 110.193 178.959 111.09 178.982 111.914C179.006 112.739 179.855 113.177 180.879 112.894C181.903 112.61 182.714 111.713 182.69 110.889C182.69 110.865 182.688 110.841 182.686 110.818L199.418 101.08L198.908 100.23L182.133 109.993Z" fill="#FFF2F2"/>
<path fill-rule="evenodd" clip-rule="evenodd" d="M181.237 103.909C181.079 103.568 180.738 103.33 180.261 103.278C179.34 103.178 178.257 103.809 177.841 104.688C177.425 105.567 177.834 106.36 178.755 106.46C179.676 106.56 180.759 105.929 181.175 105.05C181.202 104.992 181.226 104.935 181.246 104.878L199.06 101.301L199.118 100.318L181.237 103.909Z" fill="#FFF2F2"/>
<path fill-rule="evenodd" clip-rule="evenodd" d="M186.127 115.462C185.668 115.465 185.15 115.635 184.691 115.969C183.802 116.616 183.471 117.633 183.952 118.24C184.433 118.847 185.543 118.814 186.432 118.167C187.321 117.52 187.651 116.504 187.171 115.897C187.17 115.896 187.169 115.895 187.168 115.894L199.027 101.572L197.993 101.131L186.127 115.462Z" fill="#FFF2F2"/>
<path d="M218.821 142.801C232.568 126.051 213.252 107.078 201.875 99.685C183.492 139.699 207.719 146.433 208.767 145.108C209.606 144.048 211.048 141.33 211.664 140.104L218.821 142.801Z" fill="url(#paint14_linear_23349_188612)" stroke="#E8A6A6" stroke-width="0.630217"/>
<path fill-rule="evenodd" clip-rule="evenodd" d="M206.282 121.342C206 121.605 205.82 122.062 205.816 122.639C205.808 123.732 206.431 124.839 207.207 125.113C207.984 125.387 208.619 124.723 208.627 123.631C208.636 122.538 208.013 121.431 207.236 121.157C207.229 121.154 207.222 121.152 207.215 121.15L202.829 101.121L201.897 101.316L206.282 121.342Z" fill="#FFF2F2"/>
<path fill-rule="evenodd" clip-rule="evenodd" d="M200.506 120.203C200.155 120.25 199.848 120.51 199.673 120.97C199.334 121.858 199.615 123.154 200.302 123.864C200.988 124.573 201.82 124.428 202.159 123.54C202.498 122.651 202.216 121.356 201.53 120.646C201.478 120.592 201.425 120.543 201.372 120.499L202.893 101.518L202.034 101.137L200.506 120.203Z" fill="#FFF2F2"/>
<path fill-rule="evenodd" clip-rule="evenodd" d="M212.351 119.242C212.222 119.705 212.231 120.282 212.409 120.853C212.749 121.949 213.582 122.604 214.268 122.316C214.954 122.028 215.235 120.906 214.894 119.81C214.556 118.722 213.734 118.068 213.05 118.34L203.17 101.629L202.473 102.535L212.351 119.242Z" fill="#FFF2F2"/>
<path d="M163.741 72.9219C162.163 95.2795 188.013 99.3413 201.135 98.5776C193.453 53.9773 170.517 63.123 170.424 64.8681C170.349 66.2643 170.717 69.4108 170.911 70.8096L163.741 72.9219Z" fill="url(#paint15_linear_23349_188612)" stroke="#E8A6A6" stroke-width="0.630217"/>
<path fill-rule="evenodd" clip-rule="evenodd" d="M185.6 83.1852C185.671 82.7929 185.556 82.3031 185.24 81.8201C184.637 80.8969 183.532 80.3477 182.771 80.5935C182.01 80.8393 181.882 81.7869 182.485 82.7101C183.088 83.6333 184.193 84.1825 184.954 83.9367C184.964 83.9334 184.975 83.9299 184.985 83.9263L199.585 97.9601L200.211 97.2295L185.6 83.1852Z" fill="#FFF2F2"/>
<path fill-rule="evenodd" clip-rule="evenodd" d="M190.813 80.6185C191.065 80.3665 191.164 79.9619 191.048 79.4715C190.823 78.524 189.879 77.6148 188.94 77.4408C188.001 77.2668 187.422 77.8938 187.647 78.8413C187.872 79.7888 188.816 80.698 189.755 80.872C189.824 80.8847 189.89 80.8932 189.955 80.8975L199.304 97.6697L200.202 97.4623L190.813 80.6185Z" fill="#FFF2F2"/>
<path fill-rule="evenodd" clip-rule="evenodd" d="M181.969 88.6422C181.812 88.1791 181.483 87.7045 181.025 87.337C180.142 86.6291 179.115 86.5865 178.73 87.2417C178.346 87.897 178.749 89.0021 179.632 89.7099C180.51 90.4142 181.531 90.46 181.921 89.8153L199.029 97.7358L199.078 96.5629L181.969 88.6422Z" fill="#FFF2F2"/>
<path d="M212.719 53.8536C191.861 58.4378 197.08 85.3064 202.296 98.1677C240.173 78.2344 223.958 57.9055 222.34 58.2926C221.046 58.6022 218.314 59.8356 217.109 60.4137L212.719 53.8536Z" fill="url(#paint16_linear_23349_188612)" stroke="#E8A6A6" stroke-width="0.630217"/>
<path fill-rule="evenodd" clip-rule="evenodd" d="M210.929 78.4505C211.308 78.4067 211.712 78.1547 212.042 77.7093C212.677 76.8513 212.8 75.6011 212.316 74.9167C211.831 74.2323 210.923 74.373 210.287 75.231C209.652 76.0889 209.529 77.3392 210.013 78.0236C210.022 78.0357 210.031 78.0475 210.039 78.0591L202.323 96.4592L203.202 96.8759L210.929 78.4505Z" fill="#FFF2F2"/>
<path fill-rule="evenodd" clip-rule="evenodd" d="M215.057 82.9405C215.373 83.1234 215.775 83.111 216.18 82.8599C216.963 82.3752 217.463 81.1844 217.297 80.2002C217.131 79.216 216.363 78.8112 215.58 79.296C214.797 79.7807 214.297 80.9715 214.462 81.9557C214.474 82.0257 214.489 82.0928 214.507 82.1569L202.488 96.09L202.988 96.9314L215.057 82.9405Z" fill="#FFF2F2"/>
<path fill-rule="evenodd" clip-rule="evenodd" d="M204.718 76.3446C205.083 76.0604 205.399 75.6013 205.574 75.0429C205.913 73.9657 205.599 72.9267 204.874 72.7223C204.148 72.5179 203.286 73.2255 202.947 74.3027C202.61 75.3765 202.921 76.4123 203.641 76.6213L202.341 95.8367L203.418 95.5637L204.718 76.3446Z" fill="#FFF2F2"/>
<path d="M246.885 97.1456C235.529 77.6313 212.916 90.2304 203.029 98.9693C234.198 131.208 247.078 109.457 246.169 107.952C245.441 106.748 243.379 104.366 242.438 103.326L246.885 97.1456Z" fill="url(#paint17_linear_23349_188612)" stroke="#E8A6A6" stroke-width="0.630217"/>
<path fill-rule="evenodd" clip-rule="evenodd" d="M223.928 102.139C224.108 102.499 224.478 102.826 224.993 103.032C226 103.437 227.178 103.224 227.623 102.559C228.069 101.893 227.614 101.026 226.607 100.621C225.6 100.217 224.422 100.429 223.977 101.095C223.965 101.113 223.954 101.13 223.944 101.148L204.575 98.5313L204.515 99.5165L223.928 102.139Z" fill="#FFF2F2"/>
<path fill-rule="evenodd" clip-rule="evenodd" d="M221.263 107.486C221.204 107.852 221.353 108.249 221.721 108.584C222.431 109.229 223.685 109.398 224.523 108.961C225.361 108.524 225.466 107.647 224.757 107.002C224.047 106.357 222.793 106.188 221.955 106.624C221.899 106.654 221.846 106.685 221.796 106.718L204.988 98.5811L204.391 99.318L221.263 107.486Z" fill="#FFF2F2"/>
<path fill-rule="evenodd" clip-rule="evenodd" d="M223.684 95.372C224.068 95.6534 224.593 95.8387 225.162 95.8582C226.262 95.8959 227.105 95.2979 227.044 94.5226C226.984 93.7473 226.044 93.0883 224.944 93.0506C223.844 93.0129 223.001 93.6109 223.061 94.3861C223.061 94.3867 223.061 94.3873 223.061 94.3878L205.168 98.383L205.781 99.3694L223.684 95.372Z" fill="#FFF2F2"/>
<path d="M124.002 159.937C134.935 155.511 133.042 148.818 132.832 145.767C118.899 149.265 118.822 155.199 119.962 155.197C120.873 155.195 122.532 154.514 122.591 154.599L121.806 157.313C123.005 157.396 124.416 155.698 124.346 156.037L124.002 159.937Z" fill="url(#paint18_linear_23349_188612)"/>
<path d="M124.002 159.937C134.935 155.511 133.042 148.818 132.832 145.767C118.899 149.265 118.822 155.199 119.962 155.197C120.873 155.195 122.532 154.514 122.591 154.599L121.806 157.313C123.005 157.396 124.416 155.698 124.346 156.037L124.002 159.937Z" stroke="#F1D2D2" stroke-width="0.632157"/>
<path d="M124.002 159.937C134.935 155.511 133.042 148.818 132.832 145.767C118.899 149.265 118.822 155.199 119.962 155.197C120.873 155.195 122.532 154.514 122.591 154.599L121.806 157.313C123.005 157.396 124.416 155.698 124.346 156.037L124.002 159.937Z" stroke="#9D4646" stroke-opacity="0.2" stroke-width="0.632157"/>
<path d="M136.072 144.405C137.2 147.794 134.508 152.037 133.021 153.734L132.663 149.92C131.612 150.6 129.83 150.773 129.07 150.774C129.911 150.23 130.061 148.908 130.03 148.314L126.084 147.558C128.815 144.909 133.881 144.352 136.072 144.405Z" fill="#97A4A1" stroke="#97A4A1" stroke-width="0.632157"/>
<path d="M183.663 101.319C184.282 104.976 187.895 109.345 181.975 115.774C177.824 120.281 178.407 123.635 179.494 125.188C179.654 125.379 179.813 125.562 179.972 125.736C179.81 125.59 179.647 125.407 179.494 125.188C175.193 120.052 170.605 108.926 183.663 101.319Z" fill="#97A4A1"/>
<path d="M183.663 101.319C184.282 104.976 187.895 109.345 181.975 115.774C177.238 120.917 178.666 124.558 179.972 125.736C175.559 120.885 170.119 109.209 183.663 101.319Z" stroke="#97A4A1" stroke-width="0.611298"/>
<path d="M182.763 103.821C180.634 107.272 176.038 115.812 177.475 118.309" stroke="white" stroke-width="0.611298"/>
<path d="M182.763 103.821C180.634 107.272 176.038 115.812 177.475 118.309" stroke="white" stroke-opacity="0.2" stroke-width="0.611298"/>
<path d="M179.779 98.5885C178.762 101.039 179.31 105.019 173.219 106.762C168.948 107.984 168.024 110.237 168.098 111.58C168.123 111.755 168.151 111.924 168.182 112.088C168.138 111.941 168.108 111.769 168.098 111.58C167.42 106.881 168.855 98.4352 179.779 98.5885Z" fill="#97A4A1"/>
<path d="M179.779 98.5885C178.762 101.039 179.31 105.019 173.219 106.762C168.345 108.157 167.83 110.894 168.182 112.088C167.327 107.522 168.449 98.4295 179.779 98.5885Z" stroke="#97A4A1" stroke-width="0.436618"/>
<path d="M178.288 99.765C175.657 101.091 169.559 104.621 169.485 106.672" stroke="white" stroke-width="0.436618"/>
<path d="M178.288 99.765C175.657 101.091 169.559 104.621 169.485 106.672" stroke="white" stroke-opacity="0.2" stroke-width="0.436618"/>
<path d="M186.446 100.652C188.737 102.109 192.814 102.394 193.575 108.508C194.109 112.795 196.218 114.124 197.575 114.326C197.754 114.337 197.928 114.345 198.098 114.349C197.943 114.36 197.766 114.354 197.575 114.326C192.757 114.018 184.525 110.955 186.446 100.652Z" fill="#97A4A1"/>
<path d="M186.446 100.652C188.737 102.109 192.814 102.394 193.575 108.508C194.184 113.4 196.844 114.44 198.098 114.349C193.384 114.236 184.454 111.339 186.446 100.652Z" stroke="#97A4A1" stroke-width="0.436618"/>
<path d="M187.409 102.354C188.301 105.093 190.821 111.53 192.841 112.01" stroke="white" stroke-width="0.436618"/>
<path d="M187.409 102.354C188.301 105.093 190.821 111.53 192.841 112.01" stroke="white" stroke-opacity="0.2" stroke-width="0.436618"/>
<path d="M236.521 98.151C240.092 99.4886 245.804 98.6914 248.552 106.886C250.478 112.631 253.76 113.845 255.692 113.727C255.943 113.69 256.186 113.65 256.421 113.606C256.21 113.667 255.964 113.71 255.692 113.727C248.949 114.709 236.724 112.893 236.521 98.151Z" fill="#97A4A1"/>
<path d="M236.521 98.151C240.092 99.4886 245.804 98.6914 248.552 106.886C250.75 113.442 254.714 114.098 256.421 113.606C249.875 114.826 236.732 113.442 236.521 98.151Z" stroke="#97A4A1" stroke-width="0.611298"/>
<path d="M238.293 100.179C240.297 103.699 245.598 111.851 248.544 111.921" stroke="white" stroke-width="0.611298"/>
<path d="M238.293 100.179C240.297 103.699 245.598 111.851 248.544 111.921" stroke="white" stroke-opacity="0.2" stroke-width="0.611298"/>
<path d="M232.092 99.9732C233.749 102.081 237.522 103.664 236.057 109.649C235.03 113.845 236.559 115.773 237.777 116.401C237.943 116.469 238.106 116.533 238.266 116.591C238.114 116.552 237.949 116.489 237.777 116.401C233.307 114.556 226.578 109.023 232.092 99.9732Z" fill="#97A4A1"/>
<path d="M232.092 99.9732C233.749 102.081 237.522 103.664 236.057 109.649C234.885 114.437 237.041 116.272 238.266 116.591C233.825 114.963 226.373 109.36 232.092 99.9732Z" stroke="#97A4A1" stroke-width="0.436618"/>
<path d="M232.394 101.858C232.266 104.724 232.366 111.601 234.119 112.71" stroke="white" stroke-width="0.436618"/>
<path d="M232.394 101.858C232.266 104.724 232.366 111.601 234.119 112.71" stroke="white" stroke-opacity="0.2" stroke-width="0.436618"/>
<path d="M237.391 95.5235C239.836 94.311 242.144 90.9606 247.936 93.4694C251.997 95.2283 254.236 94.1065 255.099 93.0464C255.199 92.8985 255.294 92.7527 255.383 92.6096C255.315 92.7485 255.22 92.8968 255.099 93.0464C252.396 97.0207 245.535 102.499 237.391 95.5235Z" fill="#97A4A1"/>
<path d="M237.391 95.5235C239.836 94.311 242.144 90.9606 247.936 93.4694C252.57 95.4765 254.831 93.7325 255.383 92.6096C252.905 96.5956 245.839 102.759 237.391 95.5235Z" stroke="#97A4A1" stroke-width="0.436618"/>
<path d="M239.344 95.55C242.231 96.219 249.232 97.4163 250.687 95.8749" stroke="white" stroke-width="0.436618"/>
<path d="M239.344 95.55C242.231 96.219 249.232 97.4163 250.687 95.8749" stroke="white" stroke-opacity="0.2" stroke-width="0.436618"/>
<path d="M78.7944 76.0896C77.6037 79.0476 78.1544 83.7938 71.2471 86.0356C66.4046 87.6073 65.3228 90.3264 65.3826 91.9302C65.4081 92.1387 65.4369 92.3409 65.4688 92.5361C65.4222 92.3606 65.391 92.1565 65.3826 91.9302C64.6986 86.3277 66.4642 76.1879 78.7944 76.0896Z" fill="#97A4A1"/>
<path d="M78.7944 76.0896C77.6037 79.0476 78.1544 83.7938 71.2471 86.0356C65.7213 87.8291 65.0924 91.1166 65.4688 92.5361C64.5818 87.0964 66.0053 76.1916 78.7944 76.0896Z" stroke="#97A4A1" stroke-width="0.611298"/>
<path d="M77.0562 77.5534C74.0749 79.1994 67.1573 83.5572 67.0391 86.001" stroke="white" stroke-width="0.611298"/>
<path d="M77.0562 77.5534C74.0749 79.1994 67.1573 83.5572 67.0391 86.001" stroke="white" stroke-opacity="0.2" stroke-width="0.611298"/>
<path d="M77.337 72.4225C75.5468 73.7885 74.1598 76.9295 69.1791 75.6489C65.6872 74.7511 64.0494 76.0117 63.5045 77.0244C63.4443 77.1629 63.3884 77.2988 63.3369 77.4315C63.3724 77.3053 63.4276 77.1673 63.5045 77.0244C65.1213 73.3036 69.8602 67.7278 77.337 72.4225Z" fill="#97A4A1"/>
<path d="M77.337 72.4225C75.5468 73.7885 74.1598 76.9295 69.1791 75.6489C65.1945 74.6245 63.6241 76.4105 63.3369 77.4315C64.7723 73.7329 69.5819 67.5531 77.337 72.4225Z" stroke="#97A4A1" stroke-width="0.436618"/>
<path d="M75.7607 72.6548C73.3639 72.5199 67.6075 72.5406 66.6504 74.0099" stroke="white" stroke-width="0.436618"/>
<path d="M75.7607 72.6548C73.3639 72.5199 67.6075 72.5406 66.6504 74.0099" stroke="white" stroke-opacity="0.2" stroke-width="0.436618"/>
<path d="M69.7944 43.7986C68.6037 46.7566 69.1544 51.5027 62.2471 53.7446C57.4046 55.3163 56.3228 58.0354 56.3826 59.6392C56.4081 59.8477 56.4369 60.0499 56.4688 60.2451C56.4222 60.0696 56.391 59.8655 56.3826 59.6392C55.6986 54.0367 57.4642 43.8969 69.7944 43.7986Z" fill="#97A4A1"/>
<path d="M69.7944 43.7986C68.6037 46.7566 69.1544 51.5027 62.2471 53.7446C56.7213 55.5381 56.0924 58.8256 56.4688 60.2451C55.5818 54.8054 57.0053 43.9005 69.7944 43.7986Z" stroke="#97A4A1" stroke-width="0.611298"/>
<path d="M68.0562 45.2624C65.0749 46.9084 58.1573 51.2662 58.0391 53.71" stroke="white" stroke-width="0.611298"/>
<path d="M68.0562 45.2624C65.0749 46.9084 58.1573 51.2662 58.0391 53.71" stroke="white" stroke-opacity="0.2" stroke-width="0.611298"/>
<path d="M68.337 40.1315C66.5468 41.4975 65.1598 44.6385 60.1791 43.3579C56.6872 42.4601 55.0494 43.7207 54.5045 44.7334C54.4443 44.8719 54.3884 45.0078 54.3369 45.1405C54.3724 45.0142 54.4276 44.8763 54.5045 44.7334C56.1213 41.0126 60.8602 35.4368 68.337 40.1315Z" fill="#97A4A1"/>
<path d="M68.337 40.1315C66.5468 41.4975 65.1598 44.6385 60.1791 43.3579C56.1945 42.3334 54.6241 44.1194 54.3369 45.1405C55.7723 41.4419 60.5819 35.2621 68.337 40.1315Z" stroke="#97A4A1" stroke-width="0.436618"/>
<path d="M66.7607 40.3638C64.3639 40.2288 58.6075 40.2496 57.6504 41.7189" stroke="white" stroke-width="0.436618"/>
<path d="M66.7607 40.3638C64.3639 40.2288 58.6075 40.2496 57.6504 41.7189" stroke="white" stroke-opacity="0.2" stroke-width="0.436618"/>
<path d="M79.3529 45.3829C72.827 45.3844 60.8689 44.402 65.2437 40.4607C67.766 38.1882 70.509 39.2078 72.5943 40.7627C70.0345 38.1025 67.9233 34.7652 74.2278 33.0313C74.9595 32.9779 76.6075 37.0676 77.99 40.9029C76.8587 36.4412 76.8325 29.4001 82.7823 31.6221C88.3746 33.7106 85.9714 38.7875 82.8307 41.6622C85.7812 39.5282 89.6805 36.641 91.905 37.8355C94.9903 39.4923 84.8225 43.5575 79.3529 45.3829Z" fill="url(#paint19_linear_23349_188612)"/>
<path d="M79.3529 45.3829C72.827 45.3844 60.8689 44.402 65.2437 40.4607C70.7121 35.534 77.2182 46.081 75.8087 44.0095C74.3993 41.938 64.697 35.6526 74.2278 33.0313C75.1224 32.966 77.3866 39.0935 78.8605 43.3775C77.1696 40.0551 75.5014 28.903 82.7823 31.6221C90.0632 34.3412 83.7912 42.1259 79.9837 43.5211C82.5128 42.3738 88.8197 36.1787 91.905 37.8355C94.9903 39.4923 84.8225 43.5575 79.3529 45.3829Z" stroke="#F1D2D2" stroke-width="0.629083"/>
<path d="M79.3529 45.3829C72.827 45.3844 60.8689 44.402 65.2437 40.4607C70.7121 35.534 77.2182 46.081 75.8087 44.0095C74.3993 41.938 64.697 35.6526 74.2278 33.0313C75.1224 32.966 77.3866 39.0935 78.8605 43.3775C77.1696 40.0551 75.5014 28.903 82.7823 31.6221C90.0632 34.3412 83.7912 42.1259 79.9837 43.5211C82.5128 42.3738 88.8197 36.1787 91.905 37.8355C94.9903 39.4923 84.8225 43.5575 79.3529 45.3829Z" stroke="#9D4646" stroke-opacity="0.2" stroke-width="0.629083"/>
<path d="M84.1954 68.5799C76.1557 47.9287 81.6895 43.1619 85.4614 43.3599C84.0183 41.6406 80.2318 42.8571 78.519 43.6803C77.5893 42.1909 75.8857 41.6568 75.1501 41.5759C76.5932 43.2952 76.3114 44.2323 75.9902 44.486C71.562 42.2651 70.7734 44.6349 70.9326 46.0973C75.2396 40.1552 80.6593 58.7988 82.8307 68.8633L84.1954 68.5799Z" fill="#97A4A1" stroke="#97A4A1" stroke-width="0.629083"/>
<defs>
<linearGradient id="paint0_linear_23349_188612" x1="40.8015" y1="9.48686" x2="52.9288" y2="23.7261" gradientUnits="userSpaceOnUse">
<stop stop-color="#F99FBF"/>
<stop offset="1" stop-color="#FBF7F7" stop-opacity="0"/>
</linearGradient>
<linearGradient id="paint1_linear_23349_188612" x1="110.023" y1="154.234" x2="98.1797" y2="135.926" gradientUnits="userSpaceOnUse">
<stop stop-color="#F3CACA"/>
<stop offset="1" stop-color="#F3CACA" stop-opacity="0"/>
</linearGradient>
<linearGradient id="paint2_linear_23349_188612" x1="62.3422" y1="127.344" x2="53.2474" y2="113.284" gradientUnits="userSpaceOnUse">
<stop stop-color="#F3CACA"/>
<stop offset="1" stop-color="#F3CACA" stop-opacity="0"/>
</linearGradient>
<linearGradient id="paint3_linear_23349_188612" x1="77.4622" y1="103.734" x2="95.0231" y2="83.8387" gradientUnits="userSpaceOnUse">
<stop stop-color="#F99FBF"/>
<stop offset="0.9997" stop-color="#FCFBFB"/>
<stop offset="0.9998" stop-color="#F3ECEC" stop-opacity="0"/>
</linearGradient>
<linearGradient id="paint4_linear_23349_188612" x1="109.63" y1="106.052" x2="95.8673" y2="83.1246" gradientUnits="userSpaceOnUse">
<stop stop-color="#F99FBF"/>
<stop offset="0.9997" stop-color="#FCFBFB"/>
<stop offset="0.9998" stop-color="#F3ECEC" stop-opacity="0"/>
</linearGradient>
<linearGradient id="paint5_linear_23349_188612" x1="70.441" y1="72.3424" x2="94.97" y2="82.8594" gradientUnits="userSpaceOnUse">
<stop stop-color="#F99FBF"/>
<stop offset="0.9997" stop-color="#FCFBFB"/>
<stop offset="0.9998" stop-color="#F3ECEC" stop-opacity="0"/>
</linearGradient>
<linearGradient id="paint6_linear_23349_188612" x1="97.7243" y1="55.7773" x2="95.1328" y2="82.2976" gradientUnits="userSpaceOnUse">
<stop stop-color="#F99FBF"/>
<stop offset="0.9997" stop-color="#FCFBFB"/>
<stop offset="0.9998" stop-color="#F3ECEC" stop-opacity="0"/>
</linearGradient>
<linearGradient id="paint7_linear_23349_188612" x1="122.031" y1="76.6345" x2="96.1382" y2="82.558" gradientUnits="userSpaceOnUse">
<stop stop-color="#F99FBF"/>
<stop offset="0.9997" stop-color="#FCFBFB"/>
<stop offset="0.9998" stop-color="#F3ECEC" stop-opacity="0"/>
</linearGradient>
<linearGradient id="paint8_linear_23349_188612" x1="108.397" y1="131.336" x2="138.321" y2="113.59" gradientUnits="userSpaceOnUse">
<stop stop-color="#F99FBF"/>
<stop offset="0.9997" stop-color="#FCFBFB"/>
<stop offset="0.9998" stop-color="#F3ECEC" stop-opacity="0"/>
</linearGradient>
<linearGradient id="paint9_linear_23349_188612" x1="148.138" y1="148.105" x2="139.631" y2="112.321" gradientUnits="userSpaceOnUse">
<stop stop-color="#F99FBF"/>
<stop offset="0.9997" stop-color="#FCFBFB"/>
<stop offset="0.9998" stop-color="#F3ECEC" stop-opacity="0"/>
</linearGradient>
<linearGradient id="paint10_linear_23349_188612" x1="111.197" y1="87.5103" x2="139.261" y2="110.438" gradientUnits="userSpaceOnUse">
<stop stop-color="#F99FBF"/>
<stop offset="0.9997" stop-color="#FCFBFB"/>
<stop offset="0.9998" stop-color="#F3ECEC" stop-opacity="0"/>
</linearGradient>
<linearGradient id="paint11_linear_23349_188612" x1="151.788" y1="77.6332" x2="137.022" y2="110.271" gradientUnits="userSpaceOnUse">
<stop stop-color="#F99FBF"/>
<stop offset="0.9997" stop-color="#FCFBFB"/>
<stop offset="0.9998" stop-color="#F3ECEC" stop-opacity="0"/>
</linearGradient>
<linearGradient id="paint12_linear_23349_188612" x1="174.721" y1="115.15" x2="139.761" y2="113.081" gradientUnits="userSpaceOnUse">
<stop stop-color="#F99FBF"/>
<stop offset="0.9997" stop-color="#FCFBFB"/>
<stop offset="0.9998" stop-color="#F3ECEC" stop-opacity="0"/>
</linearGradient>
<linearGradient id="paint13_linear_23349_188612" x1="163.745" y1="123.239" x2="201.147" y2="101.059" gradientUnits="userSpaceOnUse">
<stop stop-color="#F99FBF"/>
<stop offset="0.9997" stop-color="#FCFBFB"/>
<stop offset="0.9998" stop-color="#F3ECEC" stop-opacity="0"/>
</linearGradient>
<linearGradient id="paint14_linear_23349_188612" x1="213.417" y1="144.199" x2="202.785" y2="99.4722" gradientUnits="userSpaceOnUse">
<stop stop-color="#F99FBF"/>
<stop offset="0.9997" stop-color="#FCFBFB"/>
<stop offset="0.9998" stop-color="#F3ECEC" stop-opacity="0"/>
</linearGradient>
<linearGradient id="paint15_linear_23349_188612" x1="167.245" y1="68.4614" x2="202.323" y2="97.119" gradientUnits="userSpaceOnUse">
<stop stop-color="#F99FBF"/>
<stop offset="0.9997" stop-color="#FCFBFB"/>
<stop offset="0.9998" stop-color="#F3ECEC" stop-opacity="0"/>
</linearGradient>
<linearGradient id="paint16_linear_23349_188612" x1="217.98" y1="56.1159" x2="199.523" y2="96.9095" gradientUnits="userSpaceOnUse">
<stop stop-color="#F99FBF"/>
<stop offset="0.9997" stop-color="#FCFBFB"/>
<stop offset="0.9998" stop-color="#F3ECEC" stop-opacity="0"/>
</linearGradient>
<linearGradient id="paint17_linear_23349_188612" x1="246.643" y1="103.009" x2="202.946" y2="100.423" gradientUnits="userSpaceOnUse">
<stop stop-color="#F99FBF"/>
<stop offset="0.9997" stop-color="#FCFBFB"/>
<stop offset="0.9998" stop-color="#F3ECEC" stop-opacity="0"/>
</linearGradient>
<linearGradient id="paint18_linear_23349_188612" x1="119.612" y1="155.791" x2="134.29" y2="144.1" gradientUnits="userSpaceOnUse">
<stop stop-color="#F99FBF"/>
<stop offset="1" stop-color="#FBF7F7" stop-opacity="0"/>
</linearGradient>
<linearGradient id="paint19_linear_23349_188612" x1="79.3803" y1="35.6492" x2="79.6497" y2="46.9526" gradientUnits="userSpaceOnUse">
<stop stop-color="#F99FBF"/>
<stop offset="1" stop-color="white"/>
</linearGradient>
</defs>
</svg>
