<svg width="165" height="159" viewBox="0 0 165 159" fill="none" xmlns="http://www.w3.org/2000/svg">
<path fill-rule="evenodd" clip-rule="evenodd" d="M55.2988 19.5977C57.1207 19.5977 58.5977 18.1207 58.5977 16.2988C58.5977 14.4769 57.1207 13 55.2988 13C53.4769 13 52 14.4769 52 16.2988C52 18.1207 53.4769 19.5977 55.2988 19.5977ZM105.299 24.5977C107.121 24.5977 108.598 23.1207 108.598 21.2988C108.598 19.4769 107.121 18 105.299 18C103.477 18 102 19.4769 102 21.2988C102 23.1207 103.477 24.5977 105.299 24.5977ZM50.2155 38.8528C52.0373 38.8528 53.5143 37.3758 53.5143 35.554C53.5143 33.7321 52.0373 32.2551 50.2155 32.2551C48.3936 32.2551 46.9166 33.7321 46.9166 35.554C46.9166 37.3758 48.3936 38.8528 50.2155 38.8528ZM27.1237 66.343C27.1237 68.1649 25.6467 69.6418 23.8248 69.6418C22.0029 69.6418 20.526 68.1649 20.526 66.343C20.526 64.5211 22.0029 63.0442 23.8248 63.0442C25.6467 63.0442 27.1237 64.5211 27.1237 66.343ZM33.7213 90.5344C33.7213 92.3563 32.2444 93.8333 30.4225 93.8333C28.6006 93.8333 27.1237 92.3563 27.1237 90.5344C27.1237 88.7125 28.6006 87.2356 30.4225 87.2356C32.2444 87.2356 33.7213 88.7125 33.7213 90.5344ZM96.7656 57.5461C96.7656 59.368 95.2887 60.845 93.4668 60.845C91.6449 60.845 90.168 59.368 90.168 57.5461C90.168 55.7243 91.6449 54.2473 93.4668 54.2473C95.2887 54.2473 96.7656 55.7243 96.7656 57.5461ZM74.5977 61.2988C74.5977 63.1207 73.1207 64.5977 71.2988 64.5977C69.4769 64.5977 68 63.1207 68 61.2988C68 59.4769 69.4769 58 71.2988 58C73.1207 58 74.5977 59.4769 74.5977 61.2988ZM102.299 67.5977C104.121 67.5977 105.598 66.1207 105.598 64.2988C105.598 62.4769 104.121 61 102.299 61C100.477 61 99 62.4769 99 64.2988C99 66.1207 100.477 67.5977 102.299 67.5977ZM110.598 82.2988C110.598 84.1207 109.121 85.5977 107.299 85.5977C105.477 85.5977 104 84.1207 104 82.2988C104 80.4769 105.477 79 107.299 79C109.121 79 110.598 80.4769 110.598 82.2988ZM100.299 97.5977C102.121 97.5977 103.598 96.1207 103.598 94.2988C103.598 92.4769 102.121 91 100.299 91C98.4769 91 97 92.4769 97 94.2988C97 96.1207 98.4769 97.5977 100.299 97.5977ZM83.5977 99.2988C83.5977 101.121 82.1207 102.598 80.2988 102.598C78.4769 102.598 77 101.121 77 99.2988C77 97.4769 78.4769 96 80.2988 96C82.1207 96 83.5977 97.4769 83.5977 99.2988ZM60.2988 80.5977C62.1207 80.5977 63.5977 79.1207 63.5977 77.2988C63.5977 75.4769 62.1207 74 60.2988 74C58.4769 74 57 75.4769 57 77.2988C57 79.1207 58.4769 80.5977 60.2988 80.5977ZM87.5977 68.2988C87.5977 70.1207 86.1207 71.5977 84.2988 71.5977C82.4769 71.5977 81 70.1207 81 68.2988C81 66.4769 82.4769 65 84.2988 65C86.1207 65 87.5977 66.4769 87.5977 68.2988ZM123.598 47.2988C123.598 49.1207 122.121 50.5977 120.299 50.5977C118.477 50.5977 117 49.1207 117 47.2988C117 45.4769 118.477 44 120.299 44C122.121 44 123.598 45.4769 123.598 47.2988ZM80.2715 29.323C82.0934 29.323 83.5703 27.8461 83.5703 26.0242C83.5703 24.2023 82.0934 22.7253 80.2715 22.7253C78.4496 22.7253 76.9727 24.2023 76.9727 26.0242C76.9727 27.8461 78.4496 29.323 80.2715 29.323ZM49.849 132.32C49.849 134.141 48.3721 135.618 46.5502 135.618C44.7283 135.618 43.2513 134.141 43.2513 132.32C43.2513 130.498 44.7283 129.021 46.5502 129.021C48.3721 129.021 49.849 130.498 49.849 132.32ZM89.0684 135.618C90.8903 135.618 92.3672 134.141 92.3672 132.32C92.3672 130.498 90.8903 129.021 89.0684 129.021C87.2465 129.021 85.7695 130.498 85.7695 132.32C85.7695 134.141 87.2465 135.618 89.0684 135.618ZM135.619 74.407C135.619 76.2289 134.142 77.7058 132.32 77.7058C130.498 77.7058 129.021 76.2289 129.021 74.407C129.021 72.5851 130.498 71.1082 132.32 71.1082C134.142 71.1082 135.619 72.5851 135.619 74.407ZM137.451 66.7097C139.273 66.7097 140.75 65.2328 140.75 63.4109C140.75 61.589 139.273 60.1121 137.451 60.1121C135.629 60.1121 134.152 61.589 134.152 63.4109C134.152 65.2328 135.629 66.7097 137.451 66.7097ZM131.953 133.786C131.953 135.608 130.476 137.085 128.654 137.085C126.832 137.085 125.355 135.608 125.355 133.786C125.355 131.964 126.832 130.487 128.654 130.487C130.476 130.487 131.953 131.964 131.953 133.786ZM67.2988 146.598C69.1207 146.598 70.5977 145.121 70.5977 143.299C70.5977 141.477 69.1207 140 67.2988 140C65.4769 140 64 141.477 64 143.299C64 145.121 65.4769 146.598 67.2988 146.598ZM29.5977 116.299C29.5977 118.121 28.1207 119.598 26.2988 119.598C24.4769 119.598 23 118.121 23 116.299C23 114.477 24.4769 113 26.2988 113C28.1207 113 29.5977 114.477 29.5977 116.299ZM19.2988 50.5977C21.1207 50.5977 22.5977 49.1207 22.5977 47.2988C22.5977 45.4769 21.1207 44 19.2988 44C17.4769 44 16 45.4769 16 47.2988C16 49.1207 17.4769 50.5977 19.2988 50.5977ZM153.598 40.2988C153.598 42.1207 152.121 43.5977 150.299 43.5977C148.477 43.5977 147 42.1207 147 40.2988C147 38.4769 148.477 37 150.299 37C152.121 37 153.598 38.4769 153.598 40.2988ZM65.2988 92.5977C67.1207 92.5977 68.5977 91.1207 68.5977 89.2988C68.5977 87.4769 67.1207 86 65.2988 86C63.4769 86 62 87.4769 62 89.2988C62 91.1207 63.4769 92.5977 65.2988 92.5977ZM27.8366 20.4183C27.8366 21.7539 26.7539 22.8366 25.4183 22.8366C24.0827 22.8366 23 21.7539 23 20.4183C23 19.0827 24.0827 18 25.4183 18C26.7539 18 27.8366 19.0827 27.8366 20.4183ZM158.344 90.5344C158.344 92.3563 156.867 93.8333 155.045 93.8333C153.223 93.8333 151.746 92.3563 151.746 90.5344C151.746 88.7125 153.223 87.2356 155.045 87.2356C156.867 87.2356 158.344 88.7125 158.344 90.5344ZM86.8691 93.8333C88.691 93.8333 90.168 92.3563 90.168 90.5344C90.168 88.7125 88.691 87.2356 86.8691 87.2356C85.0472 87.2356 83.5703 88.7125 83.5703 90.5344C83.5703 92.3563 85.0472 93.8333 86.8691 93.8333ZM108.495 109.594C108.495 111.416 107.018 112.893 105.196 112.893C103.374 112.893 101.897 111.416 101.897 109.594C101.897 107.773 103.374 106.296 105.196 106.296C107.018 106.296 108.495 107.773 108.495 109.594ZM132.32 32.2551C134.142 32.2551 135.619 30.7782 135.619 28.9563C135.619 27.1344 134.142 25.6575 132.32 25.6575C130.498 25.6575 129.021 27.1344 129.021 28.9563C129.021 30.7782 130.498 32.2551 132.32 32.2551Z" fill="#D94E2F"/>
</svg>
