<svg width="174" height="459" viewBox="0 0 174 459" fill="none" xmlns="http://www.w3.org/2000/svg">
<path d="M47.5 406C47.5 405.2 45.5 405.667 44.5 406C44.5 406 39.5 419 39 420.5C39.4 423.3 42.1667 422.667 43.5 422C46.5 425.5 46 420.5 48 422C49.6 423.2 51.3333 421.5 52 420.5C50.5 416 47.5 406.8 47.5 406Z" fill="#9C7842"/>
<ellipse cx="46" cy="333" rx="40" ry="73" fill="url(#paint0_radial_23349_207913)"/>
<path d="M44 406.344C54.0388 404.404 76.0698 403.086 83.8837 413.326C93.6512 426.127 103.721 446.836 120 448" stroke="#9C7842"/>
<path d="M135.5 263C135.5 262.2 133.5 262.667 132.5 263C132.5 263 127.5 276 127 277.5C127.4 280.3 130.167 279.667 131.5 279C134.5 282.5 134 277.5 136 279C137.6 280.2 139.333 278.5 140 277.5C138.5 273 135.5 263.8 135.5 263Z" fill="#9C7842"/>
<ellipse cx="134" cy="190" rx="40" ry="73" fill="url(#paint1_radial_23349_207913)"/>
<path d="M40.9816 134.375C40.9816 133.639 39.0066 134.069 38.0191 134.375C38.0191 134.375 33.0817 146.34 32.5879 147.721C32.9829 150.298 35.715 149.715 37.0316 149.101C39.9941 152.323 39.5004 147.721 41.4754 149.101C43.0554 150.206 44.7671 148.641 45.4254 147.721C43.9441 143.579 40.9816 135.112 40.9816 134.375Z" fill="#9C7842"/>
<ellipse cx="39.5" cy="67.1876" rx="39.5" ry="67.1876" fill="url(#paint2_radial_23349_207913)"/>
<path d="M41.5 135C44.5 136.5 85 181.5 88.5 266.5C92 351.5 111 398 120.5 405" stroke="#9C7842"/>
<path d="M36.9437 133.855C27.7596 134.21 8.16344 152.858 28.8778 158.214C54.7707 164.91 19.3665 166.614 17.6147 170.297C16.1417 173.394 19.1397 173.521 23.2064 175.55C27.2731 177.579 36.3066 178.931 25.0472 183.479C13.7877 188.028 16.3396 192.631 17.4026 195.177C18.4656 197.722 33.9287 205.086 23.1175 212.049" stroke="#9C7842"/>
<path d="M49.0179 406.855C39.8338 407.21 20.2377 425.858 40.952 431.214C66.8449 437.91 31.4408 439.614 29.6889 443.297C28.2159 446.394 31.2139 446.521 35.2806 448.55C39.3473 450.579 48.3808 451.931 37.1214 456.479" stroke="#9C7842"/>
<path d="M137.295 263.598C129.22 261.958 106.876 275.517 123.33 285.088C143.898 297.051 112.672 291.048 110.098 294.182C107.934 296.818 110.501 297.585 113.452 300.396C116.403 303.207 123.859 306.442 112.784 308.353" stroke="#9C7842"/>
<defs>
<radialGradient id="paint0_radial_23349_207913" cx="0" cy="0" r="1" gradientUnits="userSpaceOnUse" gradientTransform="translate(56.5 347.5) rotate(92.447) scale(58.5534 32.084)">
<stop stop-color="white"/>
<stop offset="0.714583" stop-color="#DCAE79"/>
<stop offset="1" stop-color="#D48931"/>
</radialGradient>
<radialGradient id="paint1_radial_23349_207913" cx="0" cy="0" r="1" gradientUnits="userSpaceOnUse" gradientTransform="translate(144.5 204.5) rotate(92.447) scale(58.5534 32.084)">
<stop stop-color="white"/>
<stop offset="0.714583" stop-color="#DCAE79"/>
<stop offset="1" stop-color="#D48931"/>
</radialGradient>
<radialGradient id="paint2_radial_23349_207913" cx="0" cy="0" r="1" gradientUnits="userSpaceOnUse" gradientTransform="translate(49.8688 80.5331) rotate(92.6253) scale(53.8987 31.6786)">
<stop stop-color="white"/>
<stop offset="0.714583" stop-color="#DCAE79"/>
<stop offset="1" stop-color="#D48931"/>
</radialGradient>
</defs>
</svg>
