<svg width="902" height="304" viewBox="0 0 902 304" fill="none" xmlns="http://www.w3.org/2000/svg">
<path d="M35.9997 0V116.5M35.9997 116.5C32.9997 114.333 27.3997 109.9 28.9997 109.5C30.9997 109 31.4997 107 32.4997 108C33.2997 108.8 35.1664 114 35.9997 116.5ZM35.9997 116.5C38.333 115.167 43.0997 112.3 43.4997 111.5C43.9997 110.5 41.4997 110.5 40.4997 109.5C39.6997 108.7 37.1664 113.833 35.9997 116.5Z" stroke="#9C7842" stroke-width="2"/>
<g filter="url(#filter0_d_23352_207939)">
<path d="M14 131.5V161.5H36.5M58 131.5H59V161.5H36.5M58 131.5H10V118H36.5M58 131.5H63V118H36.5M36.5 118V161.5" stroke="url(#paint0_linear_23352_207939)" stroke-width="3" shape-rendering="crispEdges"/>
</g>
<g filter="url(#filter1_d_23352_207939)">
<path d="M149.04 239L149.232 -0.000183105" stroke="#9C7842" stroke-width="2"/>
<path d="M149.5 234L140.5 255.5L120 257L135.5 272L130 292L149.5 281L168.5 292L164 272L178 257L158.5 255L149 234" stroke="url(#paint1_linear_23352_207939)" stroke-width="3"/>
</g>
<g filter="url(#filter2_d_23352_207939)">
<path d="M254.5 160V0" stroke="#9C7842" stroke-width="2"/>
<path d="M260.635 196H237.197V190.141H243.057V156.449H237.197V150.59H260.635C263.259 150.59 265.737 150.883 268.069 151.469C270.4 152.042 272.463 152.848 274.258 153.886C276.064 154.911 277.682 156.132 279.11 157.548C280.551 158.964 281.735 160.514 282.662 162.199C283.602 163.883 284.316 165.666 284.805 167.545C285.293 169.413 285.537 171.33 285.537 173.295C285.537 175.26 285.293 177.183 284.805 179.063C284.316 180.93 283.602 182.707 282.662 184.391C281.735 186.076 280.551 187.626 279.11 189.042C277.682 190.458 276.064 191.685 274.258 192.722C272.463 193.748 270.4 194.553 268.069 195.139C265.737 195.713 263.259 196 260.635 196ZM260.635 190.141C262.539 190.141 264.242 189.719 265.743 188.877C267.245 188.023 268.472 186.839 269.424 185.325C270.388 183.811 271.115 182.041 271.603 180.015C272.103 177.976 272.354 175.736 272.354 173.295C272.354 171.342 272.207 169.523 271.914 167.838C271.621 166.154 271.163 164.61 270.541 163.206C269.918 161.79 269.149 160.587 268.234 159.599C267.33 158.598 266.232 157.823 264.938 157.273C263.644 156.724 262.209 156.449 260.635 156.449H254.775V190.141H260.635Z" fill="url(#paint2_linear_23352_207939)"/>
</g>
<g filter="url(#filter3_d_23352_207939)">
<path d="M317 172.012V0" stroke="#9C7842" stroke-width="2"/>
<path d="M313.097 180.414C311.962 179.267 311.395 177.881 311.395 176.258C311.395 174.634 311.962 173.255 313.097 172.12C314.245 170.972 315.63 170.398 317.254 170.398C318.877 170.398 320.257 170.972 321.392 172.12C322.54 173.255 323.113 174.634 323.113 176.258C323.113 177.881 322.54 179.267 321.392 180.414C320.257 181.55 318.877 182.117 317.254 182.117C315.63 182.117 314.245 181.55 313.097 180.414ZM308.465 184.314H322.381V212.146H326.043V218.006H308.465V212.146H312.127V190.174H308.465V184.314Z" fill="url(#paint3_linear_23352_207939)"/>
</g>
<g filter="url(#filter4_d_23352_207939)">
<path d="M363.872 153.5V0" stroke="#9C7842" stroke-width="2"/>
<path d="M372.056 148.466C374.912 148.466 377.335 149.199 379.325 150.664C381.315 152.128 382.792 154.173 383.756 156.798C384.733 159.422 385.221 162.547 385.221 166.173C385.221 168.822 384.873 171.245 384.177 173.442C383.494 175.639 382.53 177.495 381.284 179.008C380.052 180.51 378.556 181.676 376.798 182.506C375.053 183.323 373.136 183.732 371.049 183.732C369.999 183.732 369.01 183.635 368.083 183.439C367.155 183.256 366.361 183.024 365.702 182.744C365.055 182.463 364.439 182.115 363.853 181.7C363.267 181.285 362.791 180.894 362.425 180.528C362.071 180.162 361.723 179.753 361.381 179.301V188.859H365.043V194.719H347.465V188.859H351.127V155.168H347.465V149.309H358.341L360.557 153.575C361.033 152.904 361.576 152.293 362.187 151.744C364.604 149.559 367.893 148.466 372.056 148.466ZM361.381 173.094C362.772 175.657 364.665 176.939 367.057 176.939C369.474 176.939 371.269 175.993 372.44 174.101C373.625 172.209 374.217 169.523 374.217 166.044C374.217 164.409 374.021 162.901 373.631 161.522C373.252 160.13 372.74 158.977 372.093 158.061C371.458 157.146 370.725 156.438 369.895 155.937C369.065 155.424 368.198 155.168 367.295 155.168C366.074 155.168 364.988 155.51 364.036 156.193C363.096 156.865 362.211 157.866 361.381 159.196V173.094Z" fill="url(#paint4_linear_23352_207939)"/>
</g>
<g filter="url(#filter5_d_23352_207939)">
<path d="M416 163V0" stroke="#9C7842" stroke-width="2"/>
<path d="M407.465 160.309H418.836L421.143 164.758C423.303 161.303 426.361 159.576 430.316 159.576C432.965 159.576 435.065 160.394 436.615 162.03C438.178 163.653 438.959 165.765 438.959 168.365C438.959 169.989 438.385 171.374 437.238 172.522C436.103 173.657 434.723 174.225 433.1 174.225C431.476 174.225 430.091 173.657 428.943 172.522C427.808 171.374 427.24 169.989 427.24 168.365C427.24 167.706 427.344 167.071 427.552 166.461C427.222 166.266 426.874 166.168 426.508 166.168C425.69 166.168 424.842 166.705 423.963 167.779C423.096 168.841 422.26 170.434 421.454 172.558L421.381 188.141H429.438V194H407.465V188.141H411.127V166.168H407.465V160.309Z" fill="url(#paint5_linear_23352_207939)"/>
</g>
<g filter="url(#filter6_d_23352_207939)">
<path d="M479 129.309V0" stroke="#9C7842" stroke-width="2"/>
<path d="M472.543 129.968C474.691 129.125 476.968 128.704 479.373 128.704C481.777 128.704 484.048 129.125 486.184 129.968C488.333 130.81 490.2 131.988 491.787 133.502C493.374 135.003 494.625 136.859 495.541 139.068C496.469 141.277 496.932 143.682 496.932 146.282C496.932 148.882 496.469 151.287 495.541 153.497C494.625 155.706 493.374 157.568 491.787 159.081C490.2 160.583 488.333 161.755 486.184 162.597C484.048 163.439 481.777 163.86 479.373 163.86C476.968 163.86 474.691 163.439 472.543 162.597C470.406 161.755 468.545 160.583 466.958 159.081C465.383 157.568 464.132 155.706 463.204 153.497C462.289 151.287 461.831 148.882 461.831 146.282C461.831 143.682 462.289 141.277 463.204 139.068C464.132 136.859 465.383 135.003 466.958 133.502C468.545 131.988 470.406 130.81 472.543 129.968ZM479.373 134.564C478.518 134.564 477.755 134.686 477.084 134.93C476.412 135.174 475.796 135.577 475.234 136.138C474.673 136.7 474.209 137.426 473.843 138.317C473.489 139.208 473.208 140.319 473 141.65C472.805 142.98 472.708 144.525 472.708 146.282C472.708 148.04 472.805 149.584 473 150.915C473.208 152.245 473.489 153.356 473.843 154.247C474.209 155.139 474.673 155.865 475.234 156.426C475.796 156.988 476.412 157.391 477.084 157.635C477.755 157.879 478.518 158.001 479.373 158.001C480.447 158.001 481.381 157.8 482.174 157.397C482.968 156.982 483.657 156.323 484.243 155.419C484.841 154.516 485.287 153.301 485.58 151.776C485.885 150.25 486.038 148.419 486.038 146.282C486.038 144.146 485.885 142.315 485.58 140.789C485.287 139.263 484.841 138.049 484.243 137.145C483.657 136.242 482.968 135.589 482.174 135.186C481.381 134.771 480.447 134.564 479.373 134.564Z" fill="url(#paint6_linear_23352_207939)"/>
</g>
<g filter="url(#filter7_d_23352_207939)">
<path d="M541.95 181.5V0" stroke="#9C7842" stroke-width="2"/>
<path d="M520.831 144.59H563.312V159.238H556.72V156.309C556.72 155.71 556.665 155.094 556.555 154.459C556.457 153.824 556.299 153.196 556.079 152.573C555.871 151.951 555.566 151.444 555.163 151.053C554.76 150.651 554.303 150.449 553.79 150.449H547.931V184.141H553.79V190H530.353V184.141H536.212V150.449H530.353C529.84 150.449 529.382 150.651 528.979 151.053C528.576 151.444 528.265 151.951 528.045 152.573C527.838 153.196 527.679 153.824 527.569 154.459C527.472 155.094 527.423 155.71 527.423 156.309V159.238H520.831V144.59Z" fill="url(#paint7_linear_23352_207939)"/>
</g>
<g filter="url(#filter8_d_23352_207939)">
<path d="M603.95 156.5L603.95 -2.22183e-05" stroke="#9C7842" stroke-width="2"/>
<path d="M597.781 172.352C597.891 173.768 598.123 175.031 598.477 176.142C598.831 177.253 599.258 178.162 599.758 178.87C600.271 179.578 600.863 180.164 601.534 180.628C602.206 181.08 602.896 181.403 603.604 181.598C604.312 181.781 605.068 181.873 605.874 181.873C608.45 181.873 610.458 181.379 611.898 180.39C613.351 179.389 614.51 177.851 615.377 175.776L620.248 177.46C619.808 178.644 619.247 179.761 618.563 180.811C617.892 181.849 617.08 182.807 616.128 183.686C615.176 184.565 614.114 185.322 612.942 185.956C611.782 186.579 610.47 187.067 609.005 187.421C607.54 187.775 605.996 187.952 604.373 187.952C601.968 187.952 599.691 187.531 597.543 186.689C595.406 185.846 593.545 184.675 591.958 183.173C590.383 181.659 589.132 179.798 588.204 177.588C587.289 175.379 586.831 172.974 586.831 170.374C586.831 167.774 587.289 165.357 588.204 163.123C589.132 160.889 590.383 159.009 591.958 157.483C593.545 155.945 595.406 154.743 597.543 153.876C599.691 153.01 601.968 152.576 604.373 152.576C606.777 152.576 609.048 153.01 611.184 153.876C613.333 154.743 615.194 155.945 616.769 157.483C618.356 159.009 619.607 160.889 620.522 163.123C621.45 165.357 621.914 167.774 621.914 170.374L621.456 172.352H597.781ZM597.909 166.492H610.836C610.519 163.685 609.817 161.64 608.73 160.358C607.644 159.076 606.204 158.436 604.409 158.436C603.518 158.436 602.719 158.582 602.01 158.875C601.302 159.156 600.668 159.614 600.106 160.248C599.545 160.871 599.075 161.707 598.696 162.757C598.33 163.794 598.068 165.04 597.909 166.492Z" fill="url(#paint8_linear_23352_207939)"/>
</g>
<g filter="url(#filter9_d_23352_207939)">
<path d="M661.5 174.392V0" stroke="#9C7842" stroke-width="2"/>
<path d="M668.854 181.318C667.463 180.451 665.693 180.018 663.544 180.018C662.678 180.018 661.872 180.14 661.127 180.384C660.383 180.616 659.669 181.019 658.985 181.592C658.314 182.166 657.74 182.892 657.264 183.771C656.788 184.65 656.409 185.767 656.129 187.122C655.848 188.477 655.708 190.015 655.708 191.736C655.708 193.458 655.86 194.99 656.165 196.332C656.47 197.675 656.873 198.774 657.374 199.628C657.886 200.483 658.497 201.185 659.205 201.734C659.925 202.283 660.664 202.674 661.42 202.906C662.177 203.125 662.995 203.235 663.874 203.235C666.45 203.235 668.458 202.741 669.898 201.752C671.351 200.751 672.51 199.213 673.377 197.138L678.248 198.823C677.808 200.007 677.247 201.124 676.563 202.173C675.892 203.211 675.08 204.169 674.128 205.048C673.176 205.927 672.114 206.684 670.942 207.319C669.782 207.941 668.47 208.429 667.005 208.783C665.54 209.137 663.996 209.314 662.373 209.314C659.968 209.314 657.691 208.893 655.543 208.051C653.406 207.209 651.545 206.037 649.958 204.535C648.383 203.022 647.132 201.16 646.204 198.951C645.289 196.741 644.831 194.336 644.831 191.736C644.831 189.649 645.124 187.684 645.71 185.84C646.296 183.997 647.12 182.367 648.182 180.951C649.256 179.535 650.513 178.315 651.954 177.289C653.394 176.264 654.993 175.489 656.751 174.964C658.509 174.427 660.352 174.158 662.281 174.158C663.807 174.158 665.241 174.305 666.584 174.598C667.927 174.878 669.123 175.269 670.173 175.77C671.235 176.258 672.224 176.868 673.139 177.601C674.055 178.333 674.854 179.114 675.538 179.944C676.234 180.762 676.881 181.684 677.479 182.709C678.101 183.674 678.413 184.729 678.413 185.877C678.413 187.5 677.839 188.886 676.691 190.033C675.556 191.169 674.177 191.736 672.553 191.736C670.93 191.736 669.544 191.169 668.397 190.033C667.261 188.886 666.694 187.5 666.694 185.877C666.694 184.974 666.883 184.125 667.261 183.332C667.652 182.538 668.183 181.867 668.854 181.318Z" fill="url(#paint9_linear_23352_207939)"/>
</g>
<g filter="url(#filter10_d_23352_207939)">
<path d="M711.531 145L711 0" stroke="#9C7842" stroke-width="2"/>
<path d="M726.635 141.576C728.344 141.576 729.839 141.808 731.121 142.272C732.403 142.736 733.452 143.377 734.27 144.195C735.088 145 735.747 146.032 736.248 147.289C736.76 148.534 737.115 149.877 737.31 151.317C737.517 152.746 737.621 154.381 737.621 156.225V170.141H741.283V176H723.705V170.141H727.367V155.492C727.367 153.563 727.19 152.062 726.836 150.988C726.494 149.914 725.994 149.175 725.335 148.772C724.688 148.369 723.803 148.168 722.68 148.168C721.642 148.168 720.574 148.614 719.475 149.505C718.389 150.396 717.357 151.641 716.381 153.24V170.141H720.043V176H702.465V170.141H706.127V136.449H702.465V130.59H716.381V147.307C716.82 146.49 717.339 145.751 717.937 145.092C718.535 144.433 719.243 143.834 720.061 143.297C720.879 142.748 721.844 142.327 722.954 142.034C724.077 141.729 725.304 141.576 726.635 141.576Z" fill="url(#paint10_linear_23352_207939)"/>
</g>
<g filter="url(#filter11_d_23352_207939)">
<path d="M823.282 0V200.5M823.282 200.5C820.282 198.333 814.682 193.9 816.282 193.5C818.282 193 818.782 191 819.782 192C820.582 192.8 822.449 198 823.282 200.5ZM823.282 200.5C825.615 199.167 830.382 196.3 830.782 195.5C831.282 194.5 828.782 194.5 827.782 193.5C826.982 192.7 824.449 197.833 823.282 200.5Z" stroke="#9C7842" stroke-width="2"/>
<path d="M801 214.5V244.5H823.5M845 214.5H846V244.5H823.5M845 214.5H797V201H823.5M845 214.5H850V201H823.5M823.5 201V244.5" stroke="url(#paint11_linear_23352_207939)" stroke-width="3"/>
</g>
<defs>
<filter id="filter0_d_23352_207939" x="4.5" y="116.5" width="64" height="54.5" filterUnits="userSpaceOnUse" color-interpolation-filters="sRGB">
<feFlood flood-opacity="0" result="BackgroundImageFix"/>
<feColorMatrix in="SourceAlpha" type="matrix" values="0 0 0 0 0 0 0 0 0 0 0 0 0 0 0 0 0 0 127 0" result="hardAlpha"/>
<feOffset dy="4"/>
<feGaussianBlur stdDeviation="2"/>
<feComposite in2="hardAlpha" operator="out"/>
<feColorMatrix type="matrix" values="0 0 0 0 0 0 0 0 0 0 0 0 0 0 0 0 0 0 0.25 0"/>
<feBlend mode="normal" in2="BackgroundImageFix" result="effect1_dropShadow_23352_207939"/>
<feBlend mode="normal" in="SourceGraphic" in2="effect1_dropShadow_23352_207939" result="shape"/>
</filter>
<filter id="filter1_d_23352_207939" x="112.55" y="-0.000976562" width="72.6074" height="303.078" filterUnits="userSpaceOnUse" color-interpolation-filters="sRGB">
<feFlood flood-opacity="0" result="BackgroundImageFix"/>
<feColorMatrix in="SourceAlpha" type="matrix" values="0 0 0 0 0 0 0 0 0 0 0 0 0 0 0 0 0 0 127 0" result="hardAlpha"/>
<feOffset dy="4"/>
<feGaussianBlur stdDeviation="2"/>
<feComposite in2="hardAlpha" operator="out"/>
<feColorMatrix type="matrix" values="0 0 0 0 0 0 0 0 0 0 0 0 0 0 0 0 0 0 0.25 0"/>
<feBlend mode="normal" in2="BackgroundImageFix" result="effect1_dropShadow_23352_207939"/>
<feBlend mode="normal" in="SourceGraphic" in2="effect1_dropShadow_23352_207939" result="shape"/>
</filter>
<filter id="filter2_d_23352_207939" x="233.197" y="0" width="56.3398" height="204" filterUnits="userSpaceOnUse" color-interpolation-filters="sRGB">
<feFlood flood-opacity="0" result="BackgroundImageFix"/>
<feColorMatrix in="SourceAlpha" type="matrix" values="0 0 0 0 0 0 0 0 0 0 0 0 0 0 0 0 0 0 127 0" result="hardAlpha"/>
<feOffset dy="4"/>
<feGaussianBlur stdDeviation="2"/>
<feComposite in2="hardAlpha" operator="out"/>
<feColorMatrix type="matrix" values="0 0 0 0 0 0 0 0 0 0 0 0 0 0 0 0 0 0 0.5 0"/>
<feBlend mode="normal" in2="BackgroundImageFix" result="effect1_dropShadow_23352_207939"/>
<feBlend mode="normal" in="SourceGraphic" in2="effect1_dropShadow_23352_207939" result="shape"/>
</filter>
<filter id="filter3_d_23352_207939" x="304.465" y="0" width="25.5781" height="226.006" filterUnits="userSpaceOnUse" color-interpolation-filters="sRGB">
<feFlood flood-opacity="0" result="BackgroundImageFix"/>
<feColorMatrix in="SourceAlpha" type="matrix" values="0 0 0 0 0 0 0 0 0 0 0 0 0 0 0 0 0 0 127 0" result="hardAlpha"/>
<feOffset dy="4"/>
<feGaussianBlur stdDeviation="2"/>
<feComposite in2="hardAlpha" operator="out"/>
<feColorMatrix type="matrix" values="0 0 0 0 0 0 0 0 0 0 0 0 0 0 0 0 0 0 0.5 0"/>
<feBlend mode="normal" in2="BackgroundImageFix" result="effect1_dropShadow_23352_207939"/>
<feBlend mode="normal" in="SourceGraphic" in2="effect1_dropShadow_23352_207939" result="shape"/>
</filter>
<filter id="filter4_d_23352_207939" x="343.465" y="0" width="45.7559" height="202.719" filterUnits="userSpaceOnUse" color-interpolation-filters="sRGB">
<feFlood flood-opacity="0" result="BackgroundImageFix"/>
<feColorMatrix in="SourceAlpha" type="matrix" values="0 0 0 0 0 0 0 0 0 0 0 0 0 0 0 0 0 0 127 0" result="hardAlpha"/>
<feOffset dy="4"/>
<feGaussianBlur stdDeviation="2"/>
<feComposite in2="hardAlpha" operator="out"/>
<feColorMatrix type="matrix" values="0 0 0 0 0 0 0 0 0 0 0 0 0 0 0 0 0 0 0.5 0"/>
<feBlend mode="normal" in2="BackgroundImageFix" result="effect1_dropShadow_23352_207939"/>
<feBlend mode="normal" in="SourceGraphic" in2="effect1_dropShadow_23352_207939" result="shape"/>
</filter>
<filter id="filter5_d_23352_207939" x="403.465" y="0" width="39.4941" height="202" filterUnits="userSpaceOnUse" color-interpolation-filters="sRGB">
<feFlood flood-opacity="0" result="BackgroundImageFix"/>
<feColorMatrix in="SourceAlpha" type="matrix" values="0 0 0 0 0 0 0 0 0 0 0 0 0 0 0 0 0 0 127 0" result="hardAlpha"/>
<feOffset dy="4"/>
<feGaussianBlur stdDeviation="2"/>
<feComposite in2="hardAlpha" operator="out"/>
<feColorMatrix type="matrix" values="0 0 0 0 0 0 0 0 0 0 0 0 0 0 0 0 0 0 0.5 0"/>
<feBlend mode="normal" in2="BackgroundImageFix" result="effect1_dropShadow_23352_207939"/>
<feBlend mode="normal" in="SourceGraphic" in2="effect1_dropShadow_23352_207939" result="shape"/>
</filter>
<filter id="filter6_d_23352_207939" x="457.831" y="0" width="43.1016" height="171.86" filterUnits="userSpaceOnUse" color-interpolation-filters="sRGB">
<feFlood flood-opacity="0" result="BackgroundImageFix"/>
<feColorMatrix in="SourceAlpha" type="matrix" values="0 0 0 0 0 0 0 0 0 0 0 0 0 0 0 0 0 0 127 0" result="hardAlpha"/>
<feOffset dy="4"/>
<feGaussianBlur stdDeviation="2"/>
<feComposite in2="hardAlpha" operator="out"/>
<feColorMatrix type="matrix" values="0 0 0 0 0 0 0 0 0 0 0 0 0 0 0 0 0 0 0.5 0"/>
<feBlend mode="normal" in2="BackgroundImageFix" result="effect1_dropShadow_23352_207939"/>
<feBlend mode="normal" in="SourceGraphic" in2="effect1_dropShadow_23352_207939" result="shape"/>
</filter>
<filter id="filter7_d_23352_207939" x="516.831" y="0" width="50.4805" height="198" filterUnits="userSpaceOnUse" color-interpolation-filters="sRGB">
<feFlood flood-opacity="0" result="BackgroundImageFix"/>
<feColorMatrix in="SourceAlpha" type="matrix" values="0 0 0 0 0 0 0 0 0 0 0 0 0 0 0 0 0 0 127 0" result="hardAlpha"/>
<feOffset dy="4"/>
<feGaussianBlur stdDeviation="2"/>
<feComposite in2="hardAlpha" operator="out"/>
<feColorMatrix type="matrix" values="0 0 0 0 0 0 0 0 0 0 0 0 0 0 0 0 0 0 0.5 0"/>
<feBlend mode="normal" in2="BackgroundImageFix" result="effect1_dropShadow_23352_207939"/>
<feBlend mode="normal" in="SourceGraphic" in2="effect1_dropShadow_23352_207939" result="shape"/>
</filter>
<filter id="filter8_d_23352_207939" x="582.831" y="0" width="43.083" height="195.952" filterUnits="userSpaceOnUse" color-interpolation-filters="sRGB">
<feFlood flood-opacity="0" result="BackgroundImageFix"/>
<feColorMatrix in="SourceAlpha" type="matrix" values="0 0 0 0 0 0 0 0 0 0 0 0 0 0 0 0 0 0 127 0" result="hardAlpha"/>
<feOffset dy="4"/>
<feGaussianBlur stdDeviation="2"/>
<feComposite in2="hardAlpha" operator="out"/>
<feColorMatrix type="matrix" values="0 0 0 0 0 0 0 0 0 0 0 0 0 0 0 0 0 0 0.5 0"/>
<feBlend mode="normal" in2="BackgroundImageFix" result="effect1_dropShadow_23352_207939"/>
<feBlend mode="normal" in="SourceGraphic" in2="effect1_dropShadow_23352_207939" result="shape"/>
</filter>
<filter id="filter9_d_23352_207939" x="640.831" y="0" width="41.5811" height="217.314" filterUnits="userSpaceOnUse" color-interpolation-filters="sRGB">
<feFlood flood-opacity="0" result="BackgroundImageFix"/>
<feColorMatrix in="SourceAlpha" type="matrix" values="0 0 0 0 0 0 0 0 0 0 0 0 0 0 0 0 0 0 127 0" result="hardAlpha"/>
<feOffset dy="4"/>
<feGaussianBlur stdDeviation="2"/>
<feComposite in2="hardAlpha" operator="out"/>
<feColorMatrix type="matrix" values="0 0 0 0 0 0 0 0 0 0 0 0 0 0 0 0 0 0 0.5 0"/>
<feBlend mode="normal" in2="BackgroundImageFix" result="effect1_dropShadow_23352_207939"/>
<feBlend mode="normal" in="SourceGraphic" in2="effect1_dropShadow_23352_207939" result="shape"/>
</filter>
<filter id="filter10_d_23352_207939" x="698.465" y="-0.00366211" width="46.8184" height="184.004" filterUnits="userSpaceOnUse" color-interpolation-filters="sRGB">
<feFlood flood-opacity="0" result="BackgroundImageFix"/>
<feColorMatrix in="SourceAlpha" type="matrix" values="0 0 0 0 0 0 0 0 0 0 0 0 0 0 0 0 0 0 127 0" result="hardAlpha"/>
<feOffset dy="4"/>
<feGaussianBlur stdDeviation="2"/>
<feComposite in2="hardAlpha" operator="out"/>
<feColorMatrix type="matrix" values="0 0 0 0 0 0 0 0 0 0 0 0 0 0 0 0 0 0 0.5 0"/>
<feBlend mode="normal" in2="BackgroundImageFix" result="effect1_dropShadow_23352_207939"/>
<feBlend mode="normal" in="SourceGraphic" in2="effect1_dropShadow_23352_207939" result="shape"/>
</filter>
<filter id="filter11_d_23352_207939" x="791.5" y="0" width="64" height="254" filterUnits="userSpaceOnUse" color-interpolation-filters="sRGB">
<feFlood flood-opacity="0" result="BackgroundImageFix"/>
<feColorMatrix in="SourceAlpha" type="matrix" values="0 0 0 0 0 0 0 0 0 0 0 0 0 0 0 0 0 0 127 0" result="hardAlpha"/>
<feOffset dy="4"/>
<feGaussianBlur stdDeviation="2"/>
<feComposite in2="hardAlpha" operator="out"/>
<feColorMatrix type="matrix" values="0 0 0 0 0 0 0 0 0 0 0 0 0 0 0 0 0 0 0.25 0"/>
<feBlend mode="normal" in2="BackgroundImageFix" result="effect1_dropShadow_23352_207939"/>
<feBlend mode="normal" in="SourceGraphic" in2="effect1_dropShadow_23352_207939" result="shape"/>
</filter>
<linearGradient id="paint0_linear_23352_207939" x1="8.85612" y1="141.945" x2="62.7454" y2="146.296" gradientUnits="userSpaceOnUse">
<stop stop-color="#F3C72B" stop-opacity="0.583333"/>
<stop offset="0.128363" stop-color="#D19F54"/>
<stop offset="0.314305" stop-color="#D8993A"/>
<stop offset="0.562366" stop-color="#D99F47"/>
<stop offset="0.82118" stop-color="#EECF6D"/>
<stop offset="1" stop-color="#FFFCF8"/>
</linearGradient>
<linearGradient id="paint1_linear_23352_207939" x1="118.748" y1="265.927" x2="177.846" y2="269.843" gradientUnits="userSpaceOnUse">
<stop stop-color="#F3C72B" stop-opacity="0.583333"/>
<stop offset="0.128363" stop-color="#D19F54"/>
<stop offset="0.314305" stop-color="#D8993A"/>
<stop offset="0.562366" stop-color="#D99F47"/>
<stop offset="0.82118" stop-color="#EECF6D"/>
<stop offset="1" stop-color="#FFFCF8"/>
</linearGradient>
<linearGradient id="paint2_linear_23352_207939" x1="233.878" y1="176.275" x2="286.887" y2="179.596" gradientUnits="userSpaceOnUse">
<stop stop-color="#F3C72B" stop-opacity="0.583333"/>
<stop offset="0.128363" stop-color="#D19F54"/>
<stop offset="0.314305" stop-color="#D8993A"/>
<stop offset="0.562366" stop-color="#D99F47"/>
<stop offset="0.82118" stop-color="#EECF6D"/>
<stop offset="1" stop-color="#FFFCF8"/>
</linearGradient>
<linearGradient id="paint3_linear_23352_207939" x1="306.59" y1="198.281" x2="326.024" y2="198.726" gradientUnits="userSpaceOnUse">
<stop stop-color="#F3C72B" stop-opacity="0.583333"/>
<stop offset="0.128363" stop-color="#D19F54"/>
<stop offset="0.314305" stop-color="#D8993A"/>
<stop offset="0.562366" stop-color="#D99F47"/>
<stop offset="0.82118" stop-color="#EECF6D"/>
<stop offset="1" stop-color="#FFFCF8"/>
</linearGradient>
<linearGradient id="paint4_linear_23352_207939" x1="345.137" y1="162.624" x2="385.967" y2="164.705" gradientUnits="userSpaceOnUse">
<stop stop-color="#F3C72B" stop-opacity="0.583333"/>
<stop offset="0.128363" stop-color="#D19F54"/>
<stop offset="0.314305" stop-color="#D8993A"/>
<stop offset="0.562366" stop-color="#D99F47"/>
<stop offset="0.82118" stop-color="#EECF6D"/>
<stop offset="1" stop-color="#FFFCF8"/>
</linearGradient>
<linearGradient id="paint5_linear_23352_207939" x1="405.266" y1="174.275" x2="440.004" y2="175.698" gradientUnits="userSpaceOnUse">
<stop stop-color="#F3C72B" stop-opacity="0.583333"/>
<stop offset="0.128363" stop-color="#D19F54"/>
<stop offset="0.314305" stop-color="#D8993A"/>
<stop offset="0.562366" stop-color="#D99F47"/>
<stop offset="0.82118" stop-color="#EECF6D"/>
<stop offset="1" stop-color="#FFFCF8"/>
</linearGradient>
<linearGradient id="paint6_linear_23352_207939" x1="459.158" y1="143.283" x2="498.983" y2="145.155" gradientUnits="userSpaceOnUse">
<stop stop-color="#F3C72B" stop-opacity="0.583333"/>
<stop offset="0.128363" stop-color="#D19F54"/>
<stop offset="0.314305" stop-color="#D8993A"/>
<stop offset="0.562366" stop-color="#D99F47"/>
<stop offset="0.82118" stop-color="#EECF6D"/>
<stop offset="1" stop-color="#FFFCF8"/>
</linearGradient>
<linearGradient id="paint7_linear_23352_207939" x1="518.007" y1="170.275" x2="564.94" y2="172.876" gradientUnits="userSpaceOnUse">
<stop stop-color="#F3C72B" stop-opacity="0.583333"/>
<stop offset="0.128363" stop-color="#D19F54"/>
<stop offset="0.314305" stop-color="#D8993A"/>
<stop offset="0.562366" stop-color="#D99F47"/>
<stop offset="0.82118" stop-color="#EECF6D"/>
<stop offset="1" stop-color="#FFFCF8"/>
</linearGradient>
<linearGradient id="paint8_linear_23352_207939" x1="584.18" y1="167.275" x2="622.988" y2="169.052" gradientUnits="userSpaceOnUse">
<stop stop-color="#F3C72B" stop-opacity="0.583333"/>
<stop offset="0.128363" stop-color="#D19F54"/>
<stop offset="0.314305" stop-color="#D8993A"/>
<stop offset="0.562366" stop-color="#D99F47"/>
<stop offset="0.82118" stop-color="#EECF6D"/>
<stop offset="1" stop-color="#FFFCF8"/>
</linearGradient>
<linearGradient id="paint9_linear_23352_207939" x1="642.18" y1="187.381" x2="680.926" y2="189.737" gradientUnits="userSpaceOnUse">
<stop stop-color="#F3C72B" stop-opacity="0.583333"/>
<stop offset="0.128363" stop-color="#D19F54"/>
<stop offset="0.314305" stop-color="#D8993A"/>
<stop offset="0.562366" stop-color="#D99F47"/>
<stop offset="0.82118" stop-color="#EECF6D"/>
<stop offset="1" stop-color="#FFFCF8"/>
</linearGradient>
<linearGradient id="paint10_linear_23352_207939" x1="700.158" y1="156.275" x2="739.983" y2="158.147" gradientUnits="userSpaceOnUse">
<stop stop-color="#F3C72B" stop-opacity="0.583333"/>
<stop offset="0.128363" stop-color="#D19F54"/>
<stop offset="0.314305" stop-color="#D8993A"/>
<stop offset="0.562366" stop-color="#D99F47"/>
<stop offset="0.82118" stop-color="#EECF6D"/>
<stop offset="1" stop-color="#FFFCF8"/>
</linearGradient>
<linearGradient id="paint11_linear_23352_207939" x1="795.856" y1="224.945" x2="849.745" y2="229.296" gradientUnits="userSpaceOnUse">
<stop stop-color="#F3C72B" stop-opacity="0.583333"/>
<stop offset="0.128363" stop-color="#D19F54"/>
<stop offset="0.314305" stop-color="#D8993A"/>
<stop offset="0.562366" stop-color="#D99F47"/>
<stop offset="0.82118" stop-color="#EECF6D"/>
<stop offset="1" stop-color="#FFFCF8"/>
</linearGradient>
</defs>
</svg>
