<svg width="778" height="377" viewBox="0 0 778 377" fill="none" xmlns="http://www.w3.org/2000/svg">
<g filter="url(#filter0_d_23352_207939)">
<path d="M316 174.012V2" stroke="#9C7842" stroke-width="2"/>
<path d="M310.097 182.414C308.962 181.267 308.395 179.881 308.395 178.258C308.395 176.634 308.962 175.255 310.097 174.12C311.245 172.972 312.63 172.398 314.254 172.398C315.877 172.398 317.257 172.972 318.392 174.12C319.54 175.255 320.113 176.634 320.113 178.258C320.113 179.881 319.54 181.267 318.392 182.414C317.257 183.549 315.877 184.117 314.254 184.117C312.63 184.117 311.245 183.549 310.097 182.414ZM305.465 186.314H319.381V214.146H323.043V220.006H305.465V214.146H309.127V192.174H305.465V186.314Z" fill="url(#paint0_linear_23352_207939)"/>
</g>
<g filter="url(#filter1_d_23352_207939)">
<path d="M389 144V2" stroke="#9C7842" stroke-width="2"/>
<path d="M394.056 141.466C396.912 141.466 399.335 142.199 401.325 143.664C403.315 145.128 404.792 147.173 405.756 149.798C406.733 152.422 407.221 155.547 407.221 159.173C407.221 161.822 406.873 164.245 406.177 166.442C405.494 168.639 404.53 170.495 403.284 172.008C402.052 173.51 400.556 174.676 398.798 175.506C397.053 176.323 395.136 176.732 393.049 176.732C391.999 176.732 391.01 176.635 390.083 176.439C389.155 176.256 388.361 176.024 387.702 175.744C387.055 175.463 386.439 175.115 385.853 174.7C385.267 174.285 384.791 173.894 384.425 173.528C384.071 173.162 383.723 172.753 383.381 172.301V181.859H387.043V187.719H369.465V181.859H373.127V148.168H369.465V142.309H380.341L382.557 146.575C383.033 145.904 383.576 145.293 384.187 144.744C386.604 142.559 389.893 141.466 394.056 141.466ZM383.381 166.094C384.772 168.657 386.665 169.939 389.057 169.939C391.474 169.939 393.269 168.993 394.44 167.101C395.625 165.209 396.217 162.523 396.217 159.044C396.217 157.409 396.021 155.901 395.631 154.522C395.252 153.13 394.74 151.977 394.093 151.061C393.458 150.146 392.725 149.438 391.895 148.937C391.065 148.424 390.198 148.168 389.295 148.168C388.074 148.168 386.988 148.51 386.036 149.193C385.096 149.865 384.211 150.866 383.381 152.196V166.094Z" fill="url(#paint1_linear_23352_207939)"/>
</g>
<g filter="url(#filter2_d_23352_207939)">
<path d="M470 165V2" stroke="#9C7842" stroke-width="2"/>
<path d="M461.465 163.309H472.836L475.143 167.758C477.303 164.303 480.361 162.576 484.316 162.576C486.965 162.576 489.065 163.394 490.615 165.03C492.178 166.653 492.959 168.765 492.959 171.365C492.959 172.989 492.385 174.374 491.238 175.522C490.103 176.657 488.723 177.225 487.1 177.225C485.476 177.225 484.091 176.657 482.943 175.522C481.808 174.374 481.24 172.989 481.24 171.365C481.24 170.706 481.344 170.071 481.552 169.461C481.222 169.266 480.874 169.168 480.508 169.168C479.69 169.168 478.842 169.705 477.963 170.779C477.096 171.841 476.26 173.434 475.454 175.558L475.381 191.141H483.438V197H461.465V191.141H465.127V169.168H461.465V163.309Z" fill="url(#paint2_linear_23352_207939)"/>
</g>
<g filter="url(#filter3_d_23352_207939)">
<path d="M564 129V2" stroke="#9C7842" stroke-width="2"/>
<path d="M559.436 127.626C561.072 127.114 562.762 126.857 564.508 126.857C566.253 126.857 567.938 127.114 569.562 127.626C571.197 128.127 572.717 128.847 574.121 129.787C575.525 130.727 576.806 131.893 577.966 133.284C579.138 134.676 580.133 136.232 580.951 137.954C581.769 139.663 582.403 141.579 582.855 143.703C583.319 145.815 583.551 148.031 583.551 150.35C583.551 152.669 583.319 154.891 582.855 157.015C582.403 159.127 581.769 161.043 580.951 162.764C580.133 164.473 579.138 166.024 577.966 167.415C576.806 168.807 575.525 169.973 574.121 170.913C572.717 171.853 571.197 172.573 569.562 173.073C567.938 173.586 566.253 173.842 564.508 173.842C562.762 173.842 561.072 173.586 559.436 173.073C557.812 172.573 556.299 171.853 554.895 170.913C553.491 169.973 552.203 168.807 551.031 167.415C549.872 166.024 548.883 164.473 548.065 162.764C547.247 161.043 546.606 159.127 546.142 157.015C545.691 154.891 545.465 152.669 545.465 150.35C545.465 148.031 545.691 145.815 546.142 143.703C546.606 141.579 547.247 139.663 548.065 137.954C548.883 136.232 549.872 134.676 551.031 133.284C552.203 131.893 553.491 130.727 554.895 129.787C556.299 128.847 557.812 128.127 559.436 127.626ZM564.508 132.717C563.666 132.717 562.909 132.9 562.237 133.266C561.578 133.632 560.974 134.243 560.425 135.097C559.875 135.939 559.417 137.032 559.051 138.375C558.685 139.718 558.404 141.39 558.209 143.392C558.014 145.394 557.916 147.713 557.916 150.35C557.916 152.987 558.014 155.306 558.209 157.308C558.404 159.31 558.685 160.982 559.051 162.325C559.417 163.668 559.875 164.766 560.425 165.621C560.974 166.463 561.578 167.067 562.237 167.434C562.909 167.8 563.666 167.983 564.508 167.983C565.57 167.983 566.491 167.678 567.273 167.067C568.066 166.445 568.75 165.456 569.323 164.101C569.909 162.734 570.349 160.909 570.642 158.626C570.947 156.331 571.1 153.573 571.1 150.35C571.1 147.127 570.947 144.375 570.642 142.092C570.349 139.797 569.909 137.972 569.323 136.617C568.75 135.25 568.066 134.261 567.273 133.651C566.491 133.028 565.57 132.717 564.508 132.717Z" fill="url(#paint3_linear_23352_207939)"/>
</g>
<g filter="url(#filter4_d_23352_207939)">
<path d="M232.635 207H209.197V201.141H215.057V167.449H209.197V161.59H232.635C235.259 161.59 237.737 161.883 240.069 162.469C242.4 163.042 244.463 163.848 246.258 164.886C248.064 165.911 249.682 167.132 251.11 168.548C252.551 169.964 253.735 171.514 254.662 173.199C255.602 174.883 256.316 176.666 256.805 178.545C257.293 180.413 257.537 182.33 257.537 184.295C257.537 186.26 257.293 188.183 256.805 190.063C256.316 191.93 255.602 193.707 254.662 195.391C253.735 197.076 252.551 198.626 251.11 200.042C249.682 201.458 248.064 202.685 246.258 203.722C244.463 204.748 242.4 205.553 240.069 206.139C237.737 206.713 235.259 207 232.635 207ZM232.635 201.141C234.539 201.141 236.242 200.719 237.743 199.877C239.245 199.023 240.472 197.839 241.424 196.325C242.388 194.811 243.115 193.041 243.603 191.015C244.103 188.976 244.354 186.736 244.354 184.295C244.354 182.342 244.207 180.523 243.914 178.838C243.621 177.154 243.163 175.61 242.541 174.206C241.918 172.79 241.149 171.587 240.234 170.599C239.33 169.598 238.232 168.823 236.938 168.273C235.644 167.724 234.209 167.449 232.635 167.449H226.775V201.141H232.635Z" fill="url(#paint4_linear_23352_207939)"/>
<path d="M226.5 162V2" stroke="#9C7842" stroke-width="2"/>
</g>
<path d="M31.9997 1V117.5M31.9997 117.5C28.9997 115.333 23.3997 110.9 24.9997 110.5C26.9997 110 27.4997 108 28.4997 109C29.2997 109.8 31.1664 115 31.9997 117.5ZM31.9997 117.5C34.333 116.167 39.0997 113.3 39.4997 112.5C39.9997 111.5 37.4997 111.5 36.4997 110.5C35.6997 109.7 33.1664 114.833 31.9997 117.5Z" stroke="#9C7842" stroke-width="2"/>
<g filter="url(#filter5_d_23352_207939)">
<path d="M10 132.5V162.5H32.5M54 132.5H55V162.5H32.5M54 132.5H6V119H32.5M54 132.5H59V119H32.5M32.5 119V162.5" stroke="url(#paint5_linear_23352_207939)" stroke-width="3" shape-rendering="crispEdges"/>
</g>
<g filter="url(#filter6_d_23352_207939)">
<path d="M745.282 1V201.5M745.282 201.5C742.282 199.333 736.682 194.9 738.282 194.5C740.282 194 740.782 192 741.782 193C742.582 193.8 744.449 199 745.282 201.5ZM745.282 201.5C747.615 200.167 752.382 197.3 752.782 196.5C753.282 195.5 750.782 195.5 749.782 194.5C748.982 193.7 746.449 198.833 745.282 201.5Z" stroke="#9C7842" stroke-width="2"/>
<path d="M723 215.5V245.5H745.5M767 215.5H768V245.5H745.5M767 215.5H719V202H745.5M767 215.5H772V202H745.5M745.5 202V245.5" stroke="url(#paint6_linear_23352_207939)" stroke-width="3"/>
</g>
<g filter="url(#filter7_d_23352_207939)">
<path d="M133.232 307.001V0.999817" stroke="#9C7842" stroke-width="2"/>
<path d="M133.5 307.001L124.5 328.501L104 330.001L119.5 345.001L114 365.001L133.5 354.001L152.5 365.001L148 345.001L162 330.001L142.5 328.001L133 307.001" stroke="url(#paint7_linear_23352_207939)" stroke-width="3"/>
</g>
<g filter="url(#filter8_d_23352_207939)">
<path d="M643.516 135L650.799 142.6M650.799 142.6L658.398 135M650.799 142.6C650.799 142.6 650.799 152.056 650.799 158.115M650.799 158.115C645.729 161.331 637.816 166.348 637.816 166.348M650.799 158.115C650.799 163.804 650.799 172.681 650.799 172.681M650.799 158.115C655.745 154.777 663.465 149.566 663.465 149.566M650.799 158.115C655.745 161.331 663.465 166.348 663.465 166.348M650.799 158.115L637.816 149.566M637.816 166.348L628 164.132M637.816 166.348L635.916 175.848M650.799 172.681L643.516 180.281M650.799 172.681L658.398 180.281M663.465 149.566L665.681 139.75M663.465 149.566L674.231 152.416M663.465 166.348L674.231 164.132M663.465 166.348L665.681 175.848M637.816 149.566L635.916 139.75M637.816 149.566L628 152.416" stroke="url(#paint8_linear_23352_207939)" stroke-width="3.79979"/>
<path d="M651 140V0" stroke="#9C7842" stroke-width="2"/>
</g>
<defs>
<filter id="filter0_d_23352_207939" x="301.465" y="2" width="25.5781" height="226.006" filterUnits="userSpaceOnUse" color-interpolation-filters="sRGB">
<feFlood flood-opacity="0" result="BackgroundImageFix"/>
<feColorMatrix in="SourceAlpha" type="matrix" values="0 0 0 0 0 0 0 0 0 0 0 0 0 0 0 0 0 0 127 0" result="hardAlpha"/>
<feOffset dy="4"/>
<feGaussianBlur stdDeviation="2"/>
<feComposite in2="hardAlpha" operator="out"/>
<feColorMatrix type="matrix" values="0 0 0 0 0 0 0 0 0 0 0 0 0 0 0 0 0 0 0.5 0"/>
<feBlend mode="normal" in2="BackgroundImageFix" result="effect1_dropShadow_23352_207939"/>
<feBlend mode="normal" in="SourceGraphic" in2="effect1_dropShadow_23352_207939" result="shape"/>
</filter>
<filter id="filter1_d_23352_207939" x="365.465" y="2" width="45.7559" height="193.719" filterUnits="userSpaceOnUse" color-interpolation-filters="sRGB">
<feFlood flood-opacity="0" result="BackgroundImageFix"/>
<feColorMatrix in="SourceAlpha" type="matrix" values="0 0 0 0 0 0 0 0 0 0 0 0 0 0 0 0 0 0 127 0" result="hardAlpha"/>
<feOffset dy="4"/>
<feGaussianBlur stdDeviation="2"/>
<feComposite in2="hardAlpha" operator="out"/>
<feColorMatrix type="matrix" values="0 0 0 0 0 0 0 0 0 0 0 0 0 0 0 0 0 0 0.5 0"/>
<feBlend mode="normal" in2="BackgroundImageFix" result="effect1_dropShadow_23352_207939"/>
<feBlend mode="normal" in="SourceGraphic" in2="effect1_dropShadow_23352_207939" result="shape"/>
</filter>
<filter id="filter2_d_23352_207939" x="457.465" y="2" width="39.4941" height="203" filterUnits="userSpaceOnUse" color-interpolation-filters="sRGB">
<feFlood flood-opacity="0" result="BackgroundImageFix"/>
<feColorMatrix in="SourceAlpha" type="matrix" values="0 0 0 0 0 0 0 0 0 0 0 0 0 0 0 0 0 0 127 0" result="hardAlpha"/>
<feOffset dy="4"/>
<feGaussianBlur stdDeviation="2"/>
<feComposite in2="hardAlpha" operator="out"/>
<feColorMatrix type="matrix" values="0 0 0 0 0 0 0 0 0 0 0 0 0 0 0 0 0 0 0.5 0"/>
<feBlend mode="normal" in2="BackgroundImageFix" result="effect1_dropShadow_23352_207939"/>
<feBlend mode="normal" in="SourceGraphic" in2="effect1_dropShadow_23352_207939" result="shape"/>
</filter>
<filter id="filter3_d_23352_207939" x="541.465" y="2" width="46.0859" height="179.842" filterUnits="userSpaceOnUse" color-interpolation-filters="sRGB">
<feFlood flood-opacity="0" result="BackgroundImageFix"/>
<feColorMatrix in="SourceAlpha" type="matrix" values="0 0 0 0 0 0 0 0 0 0 0 0 0 0 0 0 0 0 127 0" result="hardAlpha"/>
<feOffset dy="4"/>
<feGaussianBlur stdDeviation="2"/>
<feComposite in2="hardAlpha" operator="out"/>
<feColorMatrix type="matrix" values="0 0 0 0 0 0 0 0 0 0 0 0 0 0 0 0 0 0 0.5 0"/>
<feBlend mode="normal" in2="BackgroundImageFix" result="effect1_dropShadow_23352_207939"/>
<feBlend mode="normal" in="SourceGraphic" in2="effect1_dropShadow_23352_207939" result="shape"/>
</filter>
<filter id="filter4_d_23352_207939" x="205.197" y="2" width="56.3398" height="213" filterUnits="userSpaceOnUse" color-interpolation-filters="sRGB">
<feFlood flood-opacity="0" result="BackgroundImageFix"/>
<feColorMatrix in="SourceAlpha" type="matrix" values="0 0 0 0 0 0 0 0 0 0 0 0 0 0 0 0 0 0 127 0" result="hardAlpha"/>
<feOffset dy="4"/>
<feGaussianBlur stdDeviation="2"/>
<feComposite in2="hardAlpha" operator="out"/>
<feColorMatrix type="matrix" values="0 0 0 0 0 0 0 0 0 0 0 0 0 0 0 0 0 0 0.5 0"/>
<feBlend mode="normal" in2="BackgroundImageFix" result="effect1_dropShadow_23352_207939"/>
<feBlend mode="normal" in="SourceGraphic" in2="effect1_dropShadow_23352_207939" result="shape"/>
</filter>
<filter id="filter5_d_23352_207939" x="0.5" y="117.5" width="64" height="54.5" filterUnits="userSpaceOnUse" color-interpolation-filters="sRGB">
<feFlood flood-opacity="0" result="BackgroundImageFix"/>
<feColorMatrix in="SourceAlpha" type="matrix" values="0 0 0 0 0 0 0 0 0 0 0 0 0 0 0 0 0 0 127 0" result="hardAlpha"/>
<feOffset dy="4"/>
<feGaussianBlur stdDeviation="2"/>
<feComposite in2="hardAlpha" operator="out"/>
<feColorMatrix type="matrix" values="0 0 0 0 0 0 0 0 0 0 0 0 0 0 0 0 0 0 0.25 0"/>
<feBlend mode="normal" in2="BackgroundImageFix" result="effect1_dropShadow_23352_207939"/>
<feBlend mode="normal" in="SourceGraphic" in2="effect1_dropShadow_23352_207939" result="shape"/>
</filter>
<filter id="filter6_d_23352_207939" x="713.5" y="1" width="64" height="254" filterUnits="userSpaceOnUse" color-interpolation-filters="sRGB">
<feFlood flood-opacity="0" result="BackgroundImageFix"/>
<feColorMatrix in="SourceAlpha" type="matrix" values="0 0 0 0 0 0 0 0 0 0 0 0 0 0 0 0 0 0 127 0" result="hardAlpha"/>
<feOffset dy="4"/>
<feGaussianBlur stdDeviation="2"/>
<feComposite in2="hardAlpha" operator="out"/>
<feColorMatrix type="matrix" values="0 0 0 0 0 0 0 0 0 0 0 0 0 0 0 0 0 0 0.25 0"/>
<feBlend mode="normal" in2="BackgroundImageFix" result="effect1_dropShadow_23352_207939"/>
<feBlend mode="normal" in="SourceGraphic" in2="effect1_dropShadow_23352_207939" result="shape"/>
</filter>
<filter id="filter7_d_23352_207939" x="96.5498" y="0.999817" width="72.6074" height="375.078" filterUnits="userSpaceOnUse" color-interpolation-filters="sRGB">
<feFlood flood-opacity="0" result="BackgroundImageFix"/>
<feColorMatrix in="SourceAlpha" type="matrix" values="0 0 0 0 0 0 0 0 0 0 0 0 0 0 0 0 0 0 127 0" result="hardAlpha"/>
<feOffset dy="4"/>
<feGaussianBlur stdDeviation="2"/>
<feComposite in2="hardAlpha" operator="out"/>
<feColorMatrix type="matrix" values="0 0 0 0 0 0 0 0 0 0 0 0 0 0 0 0 0 0 0.25 0"/>
<feBlend mode="normal" in2="BackgroundImageFix" result="effect1_dropShadow_23352_207939"/>
<feBlend mode="normal" in="SourceGraphic" in2="effect1_dropShadow_23352_207939" result="shape"/>
</filter>
<filter id="filter8_d_23352_207939" x="623.471" y="0" width="55.2461" height="189.624" filterUnits="userSpaceOnUse" color-interpolation-filters="sRGB">
<feFlood flood-opacity="0" result="BackgroundImageFix"/>
<feColorMatrix in="SourceAlpha" type="matrix" values="0 0 0 0 0 0 0 0 0 0 0 0 0 0 0 0 0 0 127 0" result="hardAlpha"/>
<feOffset dy="4"/>
<feGaussianBlur stdDeviation="2"/>
<feComposite in2="hardAlpha" operator="out"/>
<feColorMatrix type="matrix" values="0 0 0 0 0 0 0 0 0 0 0 0 0 0 0 0 0 0 0.25 0"/>
<feBlend mode="normal" in2="BackgroundImageFix" result="effect1_dropShadow_23352_207939"/>
<feBlend mode="normal" in="SourceGraphic" in2="effect1_dropShadow_23352_207939" result="shape"/>
</filter>
<linearGradient id="paint0_linear_23352_207939" x1="303.59" y1="200.281" x2="323.024" y2="200.726" gradientUnits="userSpaceOnUse">
<stop stop-color="#F3C72B" stop-opacity="0.583333"/>
<stop offset="0.128363" stop-color="#D19F54"/>
<stop offset="0.314305" stop-color="#D8993A"/>
<stop offset="0.562366" stop-color="#D99F47"/>
<stop offset="0.82118" stop-color="#EECF6D"/>
<stop offset="1" stop-color="#FFFCF8"/>
</linearGradient>
<linearGradient id="paint1_linear_23352_207939" x1="366.986" y1="155.972" x2="414.892" y2="159.018" gradientUnits="userSpaceOnUse">
<stop stop-color="#F3C72B" stop-opacity="0.583333"/>
<stop offset="0.128363" stop-color="#D19F54"/>
<stop offset="0.314305" stop-color="#D8993A"/>
<stop offset="0.562366" stop-color="#D99F47"/>
<stop offset="0.82118" stop-color="#EECF6D"/>
<stop offset="1" stop-color="#FFFCF8"/>
</linearGradient>
<linearGradient id="paint2_linear_23352_207939" x1="459.158" y1="177.275" x2="498.983" y2="179.147" gradientUnits="userSpaceOnUse">
<stop stop-color="#F3C72B" stop-opacity="0.583333"/>
<stop offset="0.128363" stop-color="#D19F54"/>
<stop offset="0.314305" stop-color="#D8993A"/>
<stop offset="0.562366" stop-color="#D99F47"/>
<stop offset="0.82118" stop-color="#EECF6D"/>
<stop offset="1" stop-color="#FFFCF8"/>
</linearGradient>
<linearGradient id="paint3_linear_23352_207939" x1="543.158" y1="153.275" x2="582.983" y2="155.147" gradientUnits="userSpaceOnUse">
<stop stop-color="#F3C72B" stop-opacity="0.583333"/>
<stop offset="0.128363" stop-color="#D19F54"/>
<stop offset="0.314305" stop-color="#D8993A"/>
<stop offset="0.562366" stop-color="#D99F47"/>
<stop offset="0.82118" stop-color="#EECF6D"/>
<stop offset="1" stop-color="#FFFCF8"/>
</linearGradient>
<linearGradient id="paint4_linear_23352_207939" x1="205.878" y1="187.275" x2="258.887" y2="190.596" gradientUnits="userSpaceOnUse">
<stop stop-color="#F3C72B" stop-opacity="0.583333"/>
<stop offset="0.128363" stop-color="#D19F54"/>
<stop offset="0.314305" stop-color="#D8993A"/>
<stop offset="0.562366" stop-color="#D99F47"/>
<stop offset="0.82118" stop-color="#EECF6D"/>
<stop offset="1" stop-color="#FFFCF8"/>
</linearGradient>
<linearGradient id="paint5_linear_23352_207939" x1="4.85612" y1="142.945" x2="58.7454" y2="147.296" gradientUnits="userSpaceOnUse">
<stop stop-color="#F3C72B" stop-opacity="0.583333"/>
<stop offset="0.128363" stop-color="#D19F54"/>
<stop offset="0.314305" stop-color="#D8993A"/>
<stop offset="0.562366" stop-color="#D99F47"/>
<stop offset="0.82118" stop-color="#EECF6D"/>
<stop offset="1" stop-color="#FFFCF8"/>
</linearGradient>
<linearGradient id="paint6_linear_23352_207939" x1="717.856" y1="225.945" x2="771.745" y2="230.296" gradientUnits="userSpaceOnUse">
<stop stop-color="#F3C72B" stop-opacity="0.583333"/>
<stop offset="0.128363" stop-color="#D19F54"/>
<stop offset="0.314305" stop-color="#D8993A"/>
<stop offset="0.562366" stop-color="#D99F47"/>
<stop offset="0.82118" stop-color="#EECF6D"/>
<stop offset="1" stop-color="#FFFCF8"/>
</linearGradient>
<linearGradient id="paint7_linear_23352_207939" x1="102.748" y1="338.928" x2="161.846" y2="342.844" gradientUnits="userSpaceOnUse">
<stop stop-color="#F3C72B" stop-opacity="0.583333"/>
<stop offset="0.128363" stop-color="#D19F54"/>
<stop offset="0.314305" stop-color="#D8993A"/>
<stop offset="0.562366" stop-color="#D99F47"/>
<stop offset="0.82118" stop-color="#EECF6D"/>
<stop offset="1" stop-color="#FFFCF8"/>
</linearGradient>
<linearGradient id="paint8_linear_23352_207939" x1="627.002" y1="159.925" x2="674.099" y2="163.112" gradientUnits="userSpaceOnUse">
<stop stop-color="#F3C72B" stop-opacity="0.583333"/>
<stop offset="0.128363" stop-color="#D19F54"/>
<stop offset="0.314305" stop-color="#D8993A"/>
<stop offset="0.562366" stop-color="#D99F47"/>
<stop offset="0.82118" stop-color="#EECF6D"/>
<stop offset="1" stop-color="#FFFCF8"/>
</linearGradient>
</defs>
</svg>
