<svg width="55" height="36" viewBox="0 0 55 36" fill="none" xmlns="http://www.w3.org/2000/svg">
<path fill-rule="evenodd" clip-rule="evenodd" d="M14.5526 0.710699L14.3652 0L13.7217 0.355238L10.6085 2.07399L10.0629 2.37522L10.4089 2.8936L15.0853 9.89994H0.572917H0V10.4729V18.1091V18.682H0.572917H2.38679V35.0786V35.6516H2.95971H16.3854H29.8111H30.384V35.0786V18.682H32.1979H32.7708V18.1091V10.4729V9.89994H32.1979H17.0702L23.5503 3.43961L24.1631 2.82874L23.3615 2.50309L19.6948 1.01351L19.147 0.790959L18.9418 1.34552L16.4771 8.00813L14.5526 0.710699ZM1.14583 11.0458H15.8125V17.5362H1.14583V11.0458ZM3.53263 18.682H15.8125V34.5057H3.53263V18.682ZM16.9583 18.682V34.5057H29.2382V18.682H29.2144H16.9583ZM29.8111 17.5362H29.2144H16.9583V11.0458H31.625V17.5362H30.384H29.8111ZM22.1286 3.23901L17.9056 7.44905L19.8113 2.29763L22.1286 3.23901ZM11.7079 2.77587L15.3521 8.23566L13.6321 1.71359L11.7079 2.77587ZM42.7117 12.3678L42.5101 11.745L41.9195 12.0274L39.284 13.2878L38.6038 13.6132L39.0995 14.1813L42.7429 18.3573H33.8021H33.2291V18.9302V23.9104V24.4833H33.8021H34.7858V34.9775V35.5504H35.3587H44.1146H52.8705H53.4434V34.9775V24.4833H54.4271H55V23.9104V18.9302V18.3573H54.4271H45.0047L48.4249 14.7731L49.0669 14.1004L48.1772 13.8295L45.0835 12.8877L44.4526 12.6956L44.3506 13.3472L43.9199 16.0998L42.7117 12.3678ZM34.375 19.5031H43.5416V23.3375H34.375V19.5031ZM35.9316 24.4833H43.5416V34.4045H35.9316V24.4833ZM44.6875 24.4833V34.4045H52.2975V24.4833H44.6875ZM44.6875 19.5031V23.3375H52.4813H52.8705H53.4434H53.8541V19.5031H44.6875ZM45.3807 14.1759L44.9825 16.7209L46.9539 14.6549L45.3807 14.1759ZM40.4586 13.9962L42.9642 16.868L41.8232 13.3436L40.4586 13.9962Z" fill="url(#paint0_linear_23310_178743)"/>
<defs>
<linearGradient id="paint0_linear_23310_178743" x1="-1.18705" y1="19.6247" x2="54.5181" y2="25.3196" gradientUnits="userSpaceOnUse">
<stop stop-color="#F3C72B" stop-opacity="0.583333"/>
<stop offset="0.128363" stop-color="#D19F54"/>
<stop offset="0.314305" stop-color="#D8993A"/>
<stop offset="0.562366" stop-color="#D99F47"/>
<stop offset="0.82118" stop-color="#EECF6D"/>
<stop offset="1" stop-color="#FFFCF8"/>
</linearGradient>
</defs>
</svg>
